<svg width="761" height="596" viewBox="0 0 761 596" fill="none" xmlns="http://www.w3.org/2000/svg">
<g clip-path="url(#clip0_1_4)">
<g clip-path="url(#clip1_1_4)">
<path d="M295.099 583.271H295.053C293.464 583.269 291.941 582.638 290.818 581.515C289.694 580.392 289.063 578.869 289.061 577.281V225.646C289.063 224.058 289.694 222.536 290.818 221.413C291.941 220.29 293.464 219.658 295.053 219.657H591.132C592.721 219.658 594.244 220.29 595.367 221.413C596.491 222.536 597.122 224.058 597.124 225.646V499.062C597.122 500.642 596.497 502.157 595.384 503.279C594.27 504.4 592.759 505.037 591.179 505.051L295.099 583.271Z" fill="#F2F2F2"/>
<path d="M513.94 169.977H376.475V90.348C376.477 88.6665 377.146 87.0545 378.335 85.8655C379.524 84.6766 381.137 84.0078 382.819 84.0059H507.595C509.278 84.0078 510.89 84.6766 512.08 85.8655C513.269 87.0545 513.938 88.6665 513.94 90.348V169.977ZM377.885 168.567H512.53V90.348C512.529 89.0402 512.008 87.7864 511.083 86.8616C510.158 85.9369 508.904 85.4167 507.595 85.4152H382.819C381.511 85.4167 380.257 85.9369 379.331 86.8616C378.406 87.7864 377.886 89.0402 377.885 90.348V168.567Z" fill="#3F3D56"/>
<path d="M415.599 114.307H474.815C476.311 114.307 477.745 114.901 478.803 115.958C479.861 117.015 480.455 118.449 480.455 119.945V204.506H409.96V119.945C409.96 118.449 410.554 117.015 411.612 115.958C412.669 114.901 414.104 114.307 415.599 114.307Z" fill="#E6E6E6"/>
<path d="M427.231 85.4152H398.328V56.5234C398.329 55.5893 398.701 54.6937 399.362 54.0332C400.022 53.3726 400.918 53.0011 401.853 53H423.706C424.641 53.0011 425.537 53.3726 426.198 54.0332C426.858 54.6937 427.23 55.5893 427.231 56.5234V85.4152ZM399.738 84.0059H425.821V56.5234C425.821 55.9629 425.598 55.4255 425.201 55.0292C424.805 54.6329 424.267 54.41 423.706 54.4094H401.853C401.292 54.41 400.755 54.6329 400.358 55.0292C399.962 55.4255 399.739 55.9629 399.738 56.5234V84.0059Z" fill="#3F3D56"/>
<path d="M664.736 510.224C664.455 510.224 664.181 510.224 663.9 510.217C646.46 510.024 629.691 503.472 616.743 491.791C616.264 491.356 615.789 490.914 615.319 490.467L615.1 490.259V355.206L615.168 355.063C615.634 354.074 616.108 353.099 616.581 352.125C631.244 322.366 648.345 305.98 664.736 305.98C688.373 305.98 706.704 338.391 715.527 357.71C727.797 384.575 736.366 417.864 736.366 438.664C736.36 457.506 728.922 475.587 715.666 488.982C702.409 502.378 684.403 510.008 665.554 510.217C665.291 510.224 665.01 510.224 664.736 510.224ZM616.51 489.655C616.901 490.024 617.295 490.388 617.69 490.747C630.385 502.198 646.827 508.621 663.926 508.808C664.211 508.815 664.481 508.807 664.755 508.815C665.01 508.815 665.273 508.815 665.529 508.808C703.816 508.383 734.956 476.917 734.956 438.664C734.956 418.045 726.439 384.996 714.245 358.295C705.562 339.283 687.584 307.389 664.736 307.389C648.911 307.389 632.259 323.496 617.848 352.744C617.401 353.663 616.953 354.586 616.51 355.522L616.51 489.655Z" fill="#3F3D56"/>
<path d="M664.733 595.665C664.518 595.665 664.311 595.579 664.159 595.427C664.007 595.275 663.922 595.069 663.922 594.854V429.347C663.921 429.241 663.942 429.135 663.982 429.036C664.022 428.937 664.082 428.847 664.157 428.771C664.233 428.695 664.322 428.635 664.421 428.594C664.52 428.553 664.626 428.532 664.733 428.532C664.84 428.532 664.945 428.553 665.044 428.594C665.143 428.635 665.233 428.695 665.308 428.771C665.383 428.847 665.443 428.937 665.483 429.036C665.524 429.135 665.544 429.241 665.544 429.347V594.854C665.544 595.069 665.458 595.275 665.306 595.427C665.154 595.579 664.948 595.665 664.733 595.665Z" fill="#CCCCCC"/>
<path d="M243.877 595.665C243.662 595.665 243.456 595.579 243.304 595.427C243.152 595.275 243.066 595.069 243.066 594.854V429.347C243.066 429.241 243.086 429.135 243.127 429.036C243.167 428.937 243.227 428.847 243.302 428.771C243.377 428.695 243.467 428.635 243.566 428.594C243.664 428.553 243.77 428.532 243.877 428.532C243.984 428.532 244.09 428.553 244.189 428.594C244.287 428.635 244.377 428.695 244.452 428.771C244.528 428.847 244.587 428.937 244.628 429.036C244.668 429.135 244.689 429.241 244.688 429.347V594.854C244.688 595.069 244.603 595.275 244.451 595.427C244.299 595.579 244.092 595.665 243.877 595.665Z" fill="#CCCCCC"/>
<path d="M664.733 460.27C664.617 460.27 664.502 460.245 664.396 460.197C664.29 460.149 664.196 460.078 664.12 459.99L623.329 412.967C623.188 412.804 623.118 412.593 623.134 412.379C623.149 412.164 623.249 411.965 623.411 411.824C623.574 411.684 623.785 411.613 624 411.628C624.214 411.643 624.413 411.743 624.555 411.904L665.346 458.928C665.447 459.045 665.513 459.19 665.535 459.343C665.558 459.497 665.535 459.654 665.471 459.796C665.406 459.937 665.302 460.057 665.171 460.141C665.041 460.225 664.889 460.27 664.733 460.27Z" fill="#CCCCCC"/>
<path d="M664.733 487.408C664.572 487.408 664.416 487.36 664.282 487.271C664.149 487.182 664.045 487.055 663.983 486.907C663.922 486.759 663.906 486.596 663.937 486.439C663.969 486.282 664.046 486.137 664.159 486.024L687.337 462.854C687.49 462.703 687.696 462.618 687.91 462.618C688.125 462.619 688.331 462.704 688.483 462.856C688.635 463.007 688.72 463.213 688.72 463.428C688.721 463.642 688.636 463.848 688.484 464.001L665.306 487.17C665.231 487.246 665.142 487.305 665.043 487.346C664.945 487.387 664.839 487.408 664.733 487.408Z" fill="#CCCCCC"/>
<path d="M739.773 596H679.143V595.295C679.141 591.315 679.924 587.373 681.447 583.694C682.969 580.016 685.202 576.674 688.017 573.858C690.832 571.043 694.175 568.81 697.854 567.286C701.532 565.762 705.476 564.978 709.458 564.978C713.44 564.978 717.383 565.762 721.062 567.286C724.741 568.81 728.084 571.043 730.899 573.858C733.714 576.674 735.947 580.016 737.469 583.694C738.992 587.373 739.774 591.315 739.773 595.295L739.773 596ZM680.562 594.591H738.354C738.17 587.052 735.045 579.884 729.646 574.617C724.247 569.35 717.002 566.401 709.458 566.401C701.914 566.401 694.669 569.35 689.27 574.617C683.871 579.884 680.746 587.052 680.562 594.591Z" fill="#3F3D56"/>
<path d="M709.458 578.096C709.246 578.096 709.042 578.18 708.892 578.331C708.742 578.481 708.658 578.684 708.658 578.896V587.394L700.376 580.289C700.296 580.22 700.204 580.168 700.104 580.135C700.004 580.102 699.899 580.089 699.794 580.097C699.689 580.105 699.586 580.133 699.492 580.181C699.398 580.228 699.315 580.294 699.246 580.374C699.177 580.453 699.125 580.546 699.093 580.646C699.06 580.746 699.047 580.852 699.055 580.956C699.063 581.061 699.092 581.164 699.14 581.257C699.188 581.351 699.253 581.435 699.333 581.503L708.658 589.503V594.495C708.657 594.601 708.678 594.705 708.718 594.802C708.758 594.899 708.817 594.988 708.891 595.062C708.965 595.137 709.054 595.196 709.151 595.236C709.248 595.277 709.353 595.298 709.458 595.298C709.563 595.298 709.667 595.277 709.765 595.236C709.862 595.196 709.95 595.137 710.025 595.062C710.099 594.988 710.158 594.899 710.198 594.802C710.238 594.705 710.258 594.601 710.258 594.495V578.896C710.258 578.684 710.174 578.481 710.024 578.331C709.874 578.18 709.67 578.096 709.458 578.096Z" fill="#3F3D56"/>
<path d="M231.503 596H170.874V595.295C170.872 591.315 171.655 587.373 173.177 583.694C174.7 580.016 176.932 576.674 179.748 573.858C182.563 571.043 185.905 568.81 189.584 567.286C193.263 565.762 197.206 564.978 201.188 564.978C205.171 564.978 209.114 565.762 212.793 567.286C216.472 568.81 219.814 571.043 222.629 573.858C225.445 576.674 227.677 580.016 229.2 583.694C230.722 587.373 231.505 591.315 231.503 595.295L231.503 596ZM172.292 594.591H230.085C229.901 587.052 226.776 579.884 221.377 574.617C215.978 569.35 208.732 566.401 201.188 566.401C193.644 566.401 186.399 569.35 181 574.617C175.601 579.884 172.476 587.052 172.292 594.591Z" fill="#3F3D56"/>
<path d="M201.189 578.096C200.976 578.096 200.773 578.18 200.623 578.331C200.473 578.481 200.388 578.684 200.388 578.896V587.394L192.107 580.289C192.027 580.22 191.935 580.168 191.835 580.135C191.735 580.102 191.629 580.089 191.524 580.097C191.419 580.105 191.317 580.133 191.223 580.181C191.129 580.228 191.045 580.294 190.977 580.374C190.908 580.453 190.856 580.546 190.823 580.646C190.791 580.746 190.778 580.852 190.786 580.956C190.794 581.061 190.823 581.164 190.871 581.257C190.918 581.351 190.984 581.435 191.064 581.503L200.388 589.503V594.495C200.388 594.601 200.408 594.705 200.448 594.802C200.489 594.899 200.547 594.988 200.622 595.062C200.696 595.137 200.784 595.196 200.882 595.236C200.979 595.277 201.083 595.298 201.189 595.298C201.294 595.298 201.398 595.277 201.495 595.236C201.593 595.196 201.681 595.137 201.755 595.062C201.83 594.988 201.889 594.899 201.929 594.802C201.969 594.705 201.989 594.601 201.989 594.495V578.896C201.989 578.684 201.905 578.481 201.754 578.331C201.604 578.18 201.401 578.096 201.189 578.096Z" fill="#3F3D56"/>
<path d="M244.586 510.224C244.305 510.224 244.031 510.224 243.75 510.217C224.904 510.004 206.901 502.373 193.646 488.978C180.392 475.583 172.955 457.504 172.948 438.664C172.948 417.864 181.518 384.575 193.788 357.71C202.612 338.391 220.945 305.98 244.586 305.98C254.323 305.98 264.129 311.528 273.729 322.47C274.206 323.009 274.683 323.565 275.153 324.135L275.314 324.33V503.309L274.917 503.501C274.442 503.731 273.961 503.947 273.48 504.155C264.633 508.069 255.078 510.132 245.404 510.217C245.141 510.224 244.859 510.224 244.586 510.224ZM244.586 307.389C221.733 307.389 203.754 339.283 195.07 358.295C182.876 384.996 174.358 418.044 174.358 438.664C174.358 476.91 205.499 508.376 243.776 508.808C244.061 508.815 244.327 508.817 244.604 508.814C244.86 508.814 245.123 508.814 245.378 508.808C254.866 508.725 264.237 506.702 272.914 502.864C273.247 502.72 273.577 502.574 273.904 502.421V324.838C273.496 324.348 273.083 323.869 272.671 323.4C263.348 312.776 253.899 307.389 244.586 307.389Z" fill="#3F3D56"/>
<path d="M244.583 460.27C244.466 460.27 244.351 460.245 244.246 460.197C244.14 460.149 244.046 460.078 243.969 459.99L203.178 412.967C203.038 412.804 202.968 412.593 202.983 412.379C202.999 412.164 203.099 411.965 203.261 411.824C203.423 411.684 203.635 411.613 203.849 411.628C204.063 411.643 204.263 411.743 204.404 411.904L245.195 458.928C245.297 459.045 245.363 459.19 245.385 459.343C245.407 459.497 245.385 459.654 245.32 459.796C245.256 459.937 245.152 460.057 245.021 460.141C244.89 460.225 244.738 460.27 244.583 460.27Z" fill="#CCCCCC"/>
<path d="M244.582 487.408C244.422 487.408 244.265 487.36 244.132 487.271C243.998 487.182 243.894 487.055 243.833 486.907C243.772 486.759 243.756 486.596 243.787 486.439C243.818 486.282 243.895 486.137 244.009 486.024L267.187 462.854C267.339 462.703 267.545 462.618 267.76 462.618C267.975 462.619 268.18 462.704 268.332 462.856C268.484 463.007 268.569 463.213 268.57 463.428C268.57 463.642 268.485 463.848 268.334 464.001L245.156 487.17C245.08 487.246 244.991 487.305 244.893 487.346C244.794 487.387 244.689 487.408 244.582 487.408Z" fill="#CCCCCC"/>
<path d="M308.278 175.614L308.799 176.643C309.031 177.087 309.152 177.58 309.152 178.081V205.915H333.825V178.081C333.825 177.58 333.946 177.087 334.178 176.643L334.699 175.614H308.278ZM332.415 178.081V204.506H310.562V178.081C310.562 177.724 310.519 177.369 310.435 177.024H332.542C332.457 177.369 332.415 177.724 332.415 178.081ZM339.295 175.614L339.817 176.643C340.048 177.087 340.169 177.58 340.17 178.081V205.915H364.843V178.081C364.843 177.58 364.964 177.087 365.195 176.643L365.717 175.614H339.295ZM363.433 178.081V204.506H341.58V178.081C341.58 177.724 341.537 177.369 341.453 177.024H363.56C363.475 177.369 363.433 177.724 363.433 178.081ZM370.313 175.614L370.835 176.643C371.066 177.087 371.187 177.58 371.187 178.081V205.915H395.861V178.081C395.861 177.58 395.982 177.087 396.213 176.643L396.735 175.614H370.313ZM394.451 178.081V204.506H372.597V178.081C372.598 177.724 372.555 177.369 372.47 177.024H394.578C394.493 177.369 394.45 177.724 394.451 178.081ZM401.331 175.614L401.853 176.643C402.084 177.087 402.205 177.58 402.205 178.081V205.915H426.879V178.081C426.879 177.58 427 177.087 427.231 176.643L427.753 175.614H401.331ZM425.469 178.081V204.506H403.615V178.081C403.616 177.724 403.573 177.369 403.488 177.024H425.596C425.511 177.369 425.468 177.724 425.469 178.081ZM432.349 175.614L432.871 176.643C433.102 177.087 433.223 177.58 433.223 178.081V205.915H457.896V178.081C457.897 177.58 458.018 177.087 458.249 176.643L458.771 175.614H432.349ZM456.487 178.081V204.506H434.633V178.081C434.633 177.724 434.591 177.369 434.506 177.024H456.614C456.529 177.369 456.486 177.724 456.487 178.081ZM463.367 175.614L463.888 176.643C464.12 177.087 464.241 177.58 464.241 178.081V205.915H488.914V178.081C488.915 177.58 489.035 177.087 489.267 176.643L489.789 175.614H463.367ZM487.504 178.081V204.506H465.651V178.081C465.651 177.724 465.609 177.369 465.524 177.024H487.631C487.547 177.369 487.504 177.724 487.504 178.081ZM494.384 175.614L494.906 176.643C495.138 177.087 495.258 177.58 495.259 178.081V205.915H519.932V178.081C519.932 177.58 520.053 177.087 520.285 176.643L520.806 175.614H494.384ZM518.522 178.081V204.506H496.669V178.081C496.669 177.724 496.626 177.369 496.542 177.024H518.649C518.564 177.369 518.522 177.724 518.522 178.081ZM525.402 175.614L525.924 176.643C526.155 177.087 526.276 177.58 526.277 178.081V205.915H550.95V178.081C550.95 177.58 551.071 177.087 551.302 176.643L551.824 175.614H525.402ZM549.54 178.081V204.506H527.687V178.081C527.687 177.724 527.644 177.369 527.559 177.024H549.667C549.582 177.369 549.54 177.724 549.54 178.081ZM556.42 175.614L556.942 176.643C557.173 177.087 557.294 177.58 557.294 178.081V205.915H581.968V178.081C581.968 177.58 582.089 177.087 582.32 176.643L582.842 175.614H556.42ZM580.558 178.081V204.506H558.704V178.081C558.705 177.724 558.662 177.369 558.577 177.024H580.685C580.6 177.369 580.557 177.724 580.558 178.081ZM556.42 175.614L556.942 176.643C557.173 177.087 557.294 177.58 557.294 178.081V205.915H581.968V178.081C581.968 177.58 582.089 177.087 582.32 176.643L582.842 175.614H556.42ZM580.558 178.081V204.506H558.704V178.081C558.705 177.724 558.662 177.369 558.577 177.024H580.685C580.6 177.369 580.557 177.724 580.558 178.081ZM525.402 175.614L525.924 176.643C526.155 177.087 526.276 177.58 526.277 178.081V205.915H550.95V178.081C550.95 177.58 551.071 177.087 551.302 176.643L551.824 175.614H525.402ZM549.54 178.081V204.506H527.687V178.081C527.687 177.724 527.644 177.369 527.559 177.024H549.667C549.582 177.369 549.54 177.724 549.54 178.081ZM494.384 175.614L494.906 176.643C495.138 177.087 495.258 177.58 495.259 178.081V205.915H519.932V178.081C519.932 177.58 520.053 177.087 520.285 176.643L520.806 175.614H494.384ZM518.522 178.081V204.506H496.669V178.081C496.669 177.724 496.626 177.369 496.542 177.024H518.649C518.564 177.369 518.522 177.724 518.522 178.081ZM463.367 175.614L463.888 176.643C464.12 177.087 464.241 177.58 464.241 178.081V205.915H488.914V178.081C488.915 177.58 489.035 177.087 489.267 176.643L489.789 175.614H463.367ZM487.504 178.081V204.506H465.651V178.081C465.651 177.724 465.609 177.369 465.524 177.024H487.631C487.547 177.369 487.504 177.724 487.504 178.081ZM432.349 175.614L432.871 176.643C433.102 177.087 433.223 177.58 433.223 178.081V205.915H457.896V178.081C457.897 177.58 458.018 177.087 458.249 176.643L458.771 175.614H432.349ZM456.487 178.081V204.506H434.633V178.081C434.633 177.724 434.591 177.369 434.506 177.024H456.614C456.529 177.369 456.486 177.724 456.487 178.081ZM401.331 175.614L401.853 176.643C402.084 177.087 402.205 177.58 402.205 178.081V205.915H426.879V178.081C426.879 177.58 427 177.087 427.231 176.643L427.753 175.614H401.331ZM425.469 178.081V204.506H403.615V178.081C403.616 177.724 403.573 177.369 403.488 177.024H425.596C425.511 177.369 425.468 177.724 425.469 178.081ZM370.313 175.614L370.835 176.643C371.066 177.087 371.187 177.58 371.187 178.081V205.915H395.861V178.081C395.861 177.58 395.982 177.087 396.213 176.643L396.735 175.614H370.313ZM394.451 178.081V204.506H372.597V178.081C372.598 177.724 372.555 177.369 372.47 177.024H394.578C394.493 177.369 394.45 177.724 394.451 178.081ZM339.295 175.614L339.817 176.643C340.048 177.087 340.169 177.58 340.17 178.081V205.915H364.843V178.081C364.843 177.58 364.964 177.087 365.195 176.643L365.717 175.614H339.295ZM363.433 178.081V204.506H341.58V178.081C341.58 177.724 341.537 177.369 341.453 177.024H363.56C363.475 177.369 363.433 177.724 363.433 178.081ZM308.278 175.614L308.799 176.643C309.031 177.087 309.152 177.58 309.152 178.081V205.915H333.825V178.081C333.825 177.58 333.946 177.087 334.178 176.643L334.699 175.614H308.278ZM332.415 178.081V204.506H310.562V178.081C310.562 177.724 310.519 177.369 310.435 177.024H332.542C332.457 177.369 332.415 177.724 332.415 178.081ZM556.42 175.614L556.942 176.643C557.173 177.087 557.294 177.58 557.294 178.081V205.915H581.968V178.081C581.968 177.58 582.089 177.087 582.32 176.643L582.842 175.614H556.42ZM580.558 178.081V204.506H558.704V178.081C558.705 177.724 558.662 177.369 558.577 177.024H580.685C580.6 177.369 580.557 177.724 580.558 178.081ZM525.402 175.614L525.924 176.643C526.155 177.087 526.276 177.58 526.277 178.081V205.915H550.95V178.081C550.95 177.58 551.071 177.087 551.302 176.643L551.824 175.614H525.402ZM549.54 178.081V204.506H527.687V178.081C527.687 177.724 527.644 177.369 527.559 177.024H549.667C549.582 177.369 549.54 177.724 549.54 178.081ZM494.384 175.614L494.906 176.643C495.138 177.087 495.258 177.58 495.259 178.081V205.915H519.932V178.081C519.932 177.58 520.053 177.087 520.285 176.643L520.806 175.614H494.384ZM518.522 178.081V204.506H496.669V178.081C496.669 177.724 496.626 177.369 496.542 177.024H518.649C518.564 177.369 518.522 177.724 518.522 178.081ZM463.367 175.614L463.888 176.643C464.12 177.087 464.241 177.58 464.241 178.081V205.915H488.914V178.081C488.915 177.58 489.035 177.087 489.267 176.643L489.789 175.614H463.367ZM487.504 178.081V204.506H465.651V178.081C465.651 177.724 465.609 177.369 465.524 177.024H487.631C487.547 177.369 487.504 177.724 487.504 178.081ZM432.349 175.614L432.871 176.643C433.102 177.087 433.223 177.58 433.223 178.081V205.915H457.896V178.081C457.897 177.58 458.018 177.087 458.249 176.643L458.771 175.614H432.349ZM456.487 178.081V204.506H434.633V178.081C434.633 177.724 434.591 177.369 434.506 177.024H456.614C456.529 177.369 456.486 177.724 456.487 178.081ZM401.331 175.614L401.853 176.643C402.084 177.087 402.205 177.58 402.205 178.081V205.915H426.879V178.081C426.879 177.58 427 177.087 427.231 176.643L427.753 175.614H401.331ZM425.469 178.081V204.506H403.615V178.081C403.616 177.724 403.573 177.369 403.488 177.024H425.596C425.511 177.369 425.468 177.724 425.469 178.081ZM370.313 175.614L370.835 176.643C371.066 177.087 371.187 177.58 371.187 178.081V205.915H395.861V178.081C395.861 177.58 395.982 177.087 396.213 176.643L396.735 175.614H370.313ZM394.451 178.081V204.506H372.597V178.081C372.598 177.724 372.555 177.369 372.47 177.024H394.578C394.493 177.369 394.45 177.724 394.451 178.081ZM339.295 175.614L339.817 176.643C340.048 177.087 340.169 177.58 340.17 178.081V205.915H364.843V178.081C364.843 177.58 364.964 177.087 365.195 176.643L365.717 175.614H339.295ZM363.433 178.081V204.506H341.58V178.081C341.58 177.724 341.537 177.369 341.453 177.024H363.56C363.475 177.369 363.433 177.724 363.433 178.081ZM308.278 175.614L308.799 176.643C309.031 177.087 309.152 177.58 309.152 178.081V205.915H333.825V178.081C333.825 177.58 333.946 177.087 334.178 176.643L334.699 175.614H308.278ZM332.415 178.081V204.506H310.562V178.081C310.562 177.724 310.519 177.369 310.435 177.024H332.542C332.457 177.369 332.415 177.724 332.415 178.081ZM556.42 175.614L556.942 176.643C557.173 177.087 557.294 177.58 557.294 178.081V205.915H581.968V178.081C581.968 177.58 582.089 177.087 582.32 176.643L582.842 175.614H556.42ZM580.558 178.081V204.506H558.704V178.081C558.705 177.724 558.662 177.369 558.577 177.024H580.685C580.6 177.369 580.557 177.724 580.558 178.081ZM525.402 175.614L525.924 176.643C526.155 177.087 526.276 177.58 526.277 178.081V205.915H550.95V178.081C550.95 177.58 551.071 177.087 551.302 176.643L551.824 175.614H525.402ZM549.54 178.081V204.506H527.687V178.081C527.687 177.724 527.644 177.369 527.559 177.024H549.667C549.582 177.369 549.54 177.724 549.54 178.081ZM494.384 175.614L494.906 176.643C495.138 177.087 495.258 177.58 495.259 178.081V205.915H519.932V178.081C519.932 177.58 520.053 177.087 520.285 176.643L520.806 175.614H494.384ZM518.522 178.081V204.506H496.669V178.081C496.669 177.724 496.626 177.369 496.542 177.024H518.649C518.564 177.369 518.522 177.724 518.522 178.081ZM463.367 175.614L463.888 176.643C464.12 177.087 464.241 177.58 464.241 178.081V205.915H488.914V178.081C488.915 177.58 489.035 177.087 489.267 176.643L489.789 175.614H463.367ZM487.504 178.081V204.506H465.651V178.081C465.651 177.724 465.609 177.369 465.524 177.024H487.631C487.547 177.369 487.504 177.724 487.504 178.081ZM432.349 175.614L432.871 176.643C433.102 177.087 433.223 177.58 433.223 178.081V205.915H457.896V178.081C457.897 177.58 458.018 177.087 458.249 176.643L458.771 175.614H432.349ZM456.487 178.081V204.506H434.633V178.081C434.633 177.724 434.591 177.369 434.506 177.024H456.614C456.529 177.369 456.486 177.724 456.487 178.081ZM401.331 175.614L401.853 176.643C402.084 177.087 402.205 177.58 402.205 178.081V205.915H426.879V178.081C426.879 177.58 427 177.087 427.231 176.643L427.753 175.614H401.331ZM425.469 178.081V204.506H403.615V178.081C403.616 177.724 403.573 177.369 403.488 177.024H425.596C425.511 177.369 425.468 177.724 425.469 178.081ZM370.313 175.614L370.835 176.643C371.066 177.087 371.187 177.58 371.187 178.081V205.915H395.861V178.081C395.861 177.58 395.982 177.087 396.213 176.643L396.735 175.614H370.313ZM394.451 178.081V204.506H372.597V178.081C372.598 177.724 372.555 177.369 372.47 177.024H394.578C394.493 177.369 394.45 177.724 394.451 178.081ZM339.295 175.614L339.817 176.643C340.048 177.087 340.169 177.58 340.17 178.081V205.915H364.843V178.081C364.843 177.58 364.964 177.087 365.195 176.643L365.717 175.614H339.295ZM363.433 178.081V204.506H341.58V178.081C341.58 177.724 341.537 177.369 341.453 177.024H363.56C363.475 177.369 363.433 177.724 363.433 178.081ZM308.278 175.614L308.799 176.643C309.031 177.087 309.152 177.58 309.152 178.081V205.915H333.825V178.081C333.825 177.58 333.946 177.087 334.178 176.643L334.699 175.614H308.278ZM332.415 178.081V204.506H310.562V178.081C310.562 177.724 310.519 177.369 310.435 177.024H332.542C332.457 177.369 332.415 177.724 332.415 178.081ZM556.42 175.614L556.942 176.643C557.173 177.087 557.294 177.58 557.294 178.081V205.915H581.968V178.081C581.968 177.58 582.089 177.087 582.32 176.643L582.842 175.614H556.42ZM580.558 178.081V204.506H558.704V178.081C558.705 177.724 558.662 177.369 558.577 177.024H580.685C580.6 177.369 580.557 177.724 580.558 178.081ZM525.402 175.614L525.924 176.643C526.155 177.087 526.276 177.58 526.277 178.081V205.915H550.95V178.081C550.95 177.58 551.071 177.087 551.302 176.643L551.824 175.614H525.402ZM549.54 178.081V204.506H527.687V178.081C527.687 177.724 527.644 177.369 527.559 177.024H549.667C549.582 177.369 549.54 177.724 549.54 178.081ZM494.384 175.614L494.906 176.643C495.138 177.087 495.258 177.58 495.259 178.081V205.915H519.932V178.081C519.932 177.58 520.053 177.087 520.285 176.643L520.806 175.614H494.384ZM518.522 178.081V204.506H496.669V178.081C496.669 177.724 496.626 177.369 496.542 177.024H518.649C518.564 177.369 518.522 177.724 518.522 178.081ZM463.367 175.614L463.888 176.643C464.12 177.087 464.241 177.58 464.241 178.081V205.915H488.914V178.081C488.915 177.58 489.035 177.087 489.267 176.643L489.789 175.614H463.367ZM487.504 178.081V204.506H465.651V178.081C465.651 177.724 465.609 177.369 465.524 177.024H487.631C487.547 177.369 487.504 177.724 487.504 178.081ZM432.349 175.614L432.871 176.643C433.102 177.087 433.223 177.58 433.223 178.081V205.915H457.896V178.081C457.897 177.58 458.018 177.087 458.249 176.643L458.771 175.614H432.349ZM456.487 178.081V204.506H434.633V178.081C434.633 177.724 434.591 177.369 434.506 177.024H456.614C456.529 177.369 456.486 177.724 456.487 178.081ZM401.331 175.614L401.853 176.643C402.084 177.087 402.205 177.58 402.205 178.081V205.915H426.879V178.081C426.879 177.58 427 177.087 427.231 176.643L427.753 175.614H401.331ZM425.469 178.081V204.506H403.615V178.081C403.616 177.724 403.573 177.369 403.488 177.024H425.596C425.511 177.369 425.468 177.724 425.469 178.081ZM370.313 175.614L370.835 176.643C371.066 177.087 371.187 177.58 371.187 178.081V205.915H395.861V178.081C395.861 177.58 395.982 177.087 396.213 176.643L396.735 175.614H370.313ZM394.451 178.081V204.506H372.597V178.081C372.598 177.724 372.555 177.369 372.47 177.024H394.578C394.493 177.369 394.45 177.724 394.451 178.081ZM339.295 175.614L339.817 176.643C340.048 177.087 340.169 177.58 340.17 178.081V205.915H364.843V178.081C364.843 177.58 364.964 177.087 365.195 176.643L365.717 175.614H339.295ZM363.433 178.081V204.506H341.58V178.081C341.58 177.724 341.537 177.369 341.453 177.024H363.56C363.475 177.369 363.433 177.724 363.433 178.081ZM308.278 175.614L308.799 176.643C309.031 177.087 309.152 177.58 309.152 178.081V205.915H333.825V178.081C333.825 177.58 333.946 177.087 334.178 176.643L334.699 175.614H308.278ZM332.415 178.081V204.506H310.562V178.081C310.562 177.724 310.519 177.369 310.435 177.024H332.542C332.457 177.369 332.415 177.724 332.415 178.081ZM556.42 175.614L556.942 176.643C557.173 177.087 557.294 177.58 557.294 178.081V205.915H581.968V178.081C581.968 177.58 582.089 177.087 582.32 176.643L582.842 175.614H556.42ZM580.558 178.081V204.506H558.704V178.081C558.705 177.724 558.662 177.369 558.577 177.024H580.685C580.6 177.369 580.557 177.724 580.558 178.081ZM525.924 176.643C526.155 177.087 526.276 177.58 526.277 178.081V205.915H550.95V178.081C550.95 177.58 551.071 177.087 551.302 176.643L551.824 175.614H525.402L525.924 176.643ZM549.667 177.024C549.582 177.369 549.54 177.724 549.54 178.081V204.506H527.687V178.081C527.687 177.724 527.644 177.369 527.559 177.024H549.667ZM494.906 176.643C495.138 177.087 495.258 177.58 495.259 178.081V205.915H519.932V178.081C519.932 177.58 520.053 177.087 520.285 176.643L520.806 175.614H494.384L494.906 176.643ZM518.649 177.024C518.564 177.369 518.522 177.724 518.522 178.081V204.506H496.669V178.081C496.669 177.724 496.626 177.369 496.542 177.024H518.649ZM463.888 176.643C464.12 177.087 464.241 177.58 464.241 178.081V205.915H488.914V178.081C488.915 177.58 489.035 177.087 489.267 176.643L489.789 175.614H463.367L463.888 176.643ZM487.631 177.024C487.547 177.369 487.504 177.724 487.504 178.081V204.506H465.651V178.081C465.651 177.724 465.609 177.369 465.524 177.024H487.631ZM432.871 176.643C433.102 177.087 433.223 177.58 433.223 178.081V205.915H457.896V178.081C457.897 177.58 458.018 177.087 458.249 176.643L458.771 175.614H432.349L432.871 176.643ZM456.614 177.024C456.529 177.369 456.486 177.724 456.487 178.081V204.506H434.633V178.081C434.633 177.724 434.591 177.369 434.506 177.024H456.614ZM401.853 176.643C402.084 177.087 402.205 177.58 402.205 178.081V205.915H426.879V178.081C426.879 177.58 427 177.087 427.231 176.643L427.753 175.614H401.331L401.853 176.643ZM425.596 177.024C425.511 177.369 425.468 177.724 425.469 178.081V204.506H403.615V178.081C403.616 177.724 403.573 177.369 403.488 177.024H425.596ZM370.835 176.643C371.066 177.087 371.187 177.58 371.187 178.081V205.915H395.861V178.081C395.861 177.58 395.982 177.087 396.213 176.643L396.735 175.614H370.313L370.835 176.643ZM394.578 177.024C394.493 177.369 394.45 177.724 394.451 178.081V204.506H372.597V178.081C372.598 177.724 372.555 177.369 372.47 177.024H394.578ZM339.817 176.643C340.048 177.087 340.169 177.58 340.17 178.081V205.915H364.843V178.081C364.843 177.58 364.964 177.087 365.195 176.643L365.717 175.614H339.295L339.817 176.643ZM363.56 177.024C363.475 177.369 363.433 177.724 363.433 178.081V204.506H341.58V178.081C341.58 177.724 341.537 177.369 341.453 177.024H363.56ZM308.799 176.643C309.031 177.087 309.152 177.58 309.152 178.081V205.915H333.825V178.081C333.825 177.58 333.946 177.087 334.178 176.643L334.699 175.614H308.278L308.799 176.643ZM332.542 177.024C332.457 177.369 332.415 177.724 332.415 178.081V204.506H310.562V178.081C310.562 177.724 310.519 177.369 310.435 177.024H332.542ZM556.942 176.643C557.173 177.087 557.294 177.58 557.294 178.081V205.915H581.968V178.081C581.968 177.58 582.089 177.087 582.32 176.643L582.842 175.614H556.42L556.942 176.643ZM580.685 177.024C580.6 177.369 580.557 177.724 580.558 178.081V204.506H558.704V178.081C558.705 177.724 558.662 177.369 558.577 177.024H580.685ZM525.924 176.643C526.155 177.087 526.276 177.58 526.277 178.081V205.915H550.95V178.081C550.95 177.58 551.071 177.087 551.302 176.643L551.824 175.614H525.402L525.924 176.643ZM549.667 177.024C549.582 177.369 549.54 177.724 549.54 178.081V204.506H527.687V178.081C527.687 177.724 527.644 177.369 527.559 177.024H549.667ZM494.906 176.643C495.138 177.087 495.258 177.58 495.259 178.081V205.915H519.932V178.081C519.932 177.58 520.053 177.087 520.285 176.643L520.806 175.614H494.384L494.906 176.643ZM518.649 177.024C518.564 177.369 518.522 177.724 518.522 178.081V204.506H496.669V178.081C496.669 177.724 496.626 177.369 496.542 177.024H518.649ZM463.888 176.643C464.12 177.087 464.241 177.58 464.241 178.081V205.915H488.914V178.081C488.915 177.58 489.035 177.087 489.267 176.643L489.789 175.614H463.367L463.888 176.643ZM487.631 177.024C487.547 177.369 487.504 177.724 487.504 178.081V204.506H465.651V178.081C465.651 177.724 465.609 177.369 465.524 177.024H487.631ZM432.871 176.643C433.102 177.087 433.223 177.58 433.223 178.081V205.915H457.896V178.081C457.897 177.58 458.018 177.087 458.249 176.643L458.771 175.614H432.349L432.871 176.643ZM456.614 177.024C456.529 177.369 456.486 177.724 456.487 178.081V204.506H434.633V178.081C434.633 177.724 434.591 177.369 434.506 177.024H456.614ZM401.853 176.643C402.084 177.087 402.205 177.58 402.205 178.081V205.915H426.879V178.081C426.879 177.58 427 177.087 427.231 176.643L427.753 175.614H401.331L401.853 176.643ZM425.596 177.024C425.511 177.369 425.468 177.724 425.469 178.081V204.506H403.615V178.081C403.616 177.724 403.573 177.369 403.488 177.024H425.596ZM370.835 176.643C371.066 177.087 371.187 177.58 371.187 178.081V205.915H395.861V178.081C395.861 177.58 395.982 177.087 396.213 176.643L396.735 175.614H370.313L370.835 176.643ZM394.578 177.024C394.493 177.369 394.45 177.724 394.451 178.081V204.506H372.597V178.081C372.598 177.724 372.555 177.369 372.47 177.024H394.578ZM339.817 176.643C340.048 177.087 340.169 177.58 340.17 178.081V205.915H364.843V178.081C364.843 177.58 364.964 177.087 365.195 176.643L365.717 175.614H339.295L339.817 176.643ZM363.56 177.024C363.475 177.369 363.433 177.724 363.433 178.081V204.506H341.58V178.081C341.58 177.724 341.537 177.369 341.453 177.024H363.56ZM308.799 176.643C309.031 177.087 309.152 177.58 309.152 178.081V205.915H333.825V178.081C333.825 177.58 333.946 177.087 334.178 176.643L334.699 175.614H308.278L308.799 176.643ZM332.542 177.024C332.457 177.369 332.415 177.724 332.415 178.081V204.506H310.562V178.081C310.562 177.724 310.519 177.369 310.435 177.024H332.542ZM610.166 210.143H601.763C601.299 208.522 600.321 207.096 598.976 206.079C597.631 205.062 595.991 204.51 594.304 204.506H589.722V178.081C589.724 177.513 589.616 176.951 589.405 176.425C590.204 175.954 590.825 175.234 591.174 174.376C591.523 173.517 591.579 172.568 591.335 171.674C591.09 170.781 590.558 169.992 589.821 169.431C589.084 168.869 588.182 168.566 587.255 168.567H303.865C302.938 168.566 302.036 168.869 301.299 169.431C300.561 169.992 300.029 170.781 299.785 171.674C299.54 172.568 299.597 173.518 299.945 174.376C300.294 175.235 300.916 175.954 301.715 176.425C301.503 176.951 301.396 177.513 301.397 178.081V204.506H296.815C295.129 204.51 293.489 205.062 292.144 206.079C290.798 207.096 289.82 208.522 289.357 210.143H280.249C278.567 210.146 276.955 210.815 275.765 212.004C274.576 213.193 273.907 214.804 273.904 216.486V588.556C273.908 590.237 274.578 591.848 275.767 593.037C276.956 594.225 278.567 594.895 280.249 594.898H610.166C611.848 594.896 613.46 594.227 614.649 593.038C615.839 591.849 616.508 590.237 616.51 588.556V216.486C616.508 214.804 615.838 213.193 614.649 212.004C613.46 210.815 611.848 210.146 610.166 210.143ZM615.1 588.556C615.099 589.563 614.79 590.546 614.214 591.372C613.638 592.198 612.823 592.829 611.879 593.179C611.332 593.387 610.751 593.492 610.166 593.489H280.249C279.664 593.492 279.083 593.387 278.536 593.179C277.591 592.829 276.776 592.198 276.2 591.372C275.625 590.546 275.315 589.563 275.314 588.556V216.486C275.316 215.178 275.836 213.924 276.761 212.999C277.686 212.074 278.941 211.554 280.249 211.553H290.485L290.598 210.989C290.894 209.559 291.674 208.273 292.806 207.35C293.938 206.426 295.354 205.919 296.815 205.915H302.807V178.081C302.807 177.507 302.963 176.945 303.259 176.453L303.695 175.727L302.899 175.431C302.276 175.205 301.753 174.768 301.422 174.194C301.091 173.621 300.973 172.95 301.088 172.298C301.203 171.646 301.545 171.056 302.053 170.631C302.561 170.207 303.203 169.975 303.865 169.977H587.255C587.917 169.975 588.558 170.207 589.066 170.631C589.574 171.056 589.916 171.646 590.032 172.298C590.147 172.95 590.029 173.621 589.697 174.194C589.366 174.768 588.843 175.205 588.221 175.431L587.424 175.727L587.861 176.453C588.156 176.944 588.312 177.507 588.312 178.081V205.915H594.304C595.766 205.919 597.181 206.426 598.314 207.35C599.446 208.273 600.225 209.559 600.522 210.989L600.635 211.553H610.166C611.474 211.554 612.728 212.074 613.653 212.999C614.578 213.924 615.099 215.178 615.1 216.486L615.1 588.556ZM308.278 175.614L308.799 176.643C309.031 177.087 309.152 177.58 309.152 178.081V205.915H333.825V178.081C333.825 177.58 333.946 177.087 334.178 176.643L334.699 175.614H308.278ZM332.415 178.081V204.506H310.562V178.081C310.562 177.724 310.519 177.369 310.435 177.024H332.542C332.457 177.369 332.415 177.724 332.415 178.081ZM339.295 175.614L339.817 176.643C340.048 177.087 340.169 177.58 340.17 178.081V205.915H364.843V178.081C364.843 177.58 364.964 177.087 365.195 176.643L365.717 175.614H339.295ZM363.433 178.081V204.506H341.58V178.081C341.58 177.724 341.537 177.369 341.453 177.024H363.56C363.475 177.369 363.433 177.724 363.433 178.081ZM370.313 175.614L370.835 176.643C371.066 177.087 371.187 177.58 371.187 178.081V205.915H395.861V178.081C395.861 177.58 395.982 177.087 396.213 176.643L396.735 175.614H370.313ZM394.451 178.081V204.506H372.597V178.081C372.598 177.724 372.555 177.369 372.47 177.024H394.578C394.493 177.369 394.45 177.724 394.451 178.081ZM401.331 175.614L401.853 176.643C402.084 177.087 402.205 177.58 402.205 178.081V205.915H426.879V178.081C426.879 177.58 427 177.087 427.231 176.643L427.753 175.614H401.331ZM425.469 178.081V204.506H403.615V178.081C403.616 177.724 403.573 177.369 403.488 177.024H425.596C425.511 177.369 425.468 177.724 425.469 178.081ZM432.349 175.614L432.871 176.643C433.102 177.087 433.223 177.58 433.223 178.081V205.915H457.896V178.081C457.897 177.58 458.018 177.087 458.249 176.643L458.771 175.614H432.349ZM456.487 178.081V204.506H434.633V178.081C434.633 177.724 434.591 177.369 434.506 177.024H456.614C456.529 177.369 456.486 177.724 456.487 178.081ZM463.367 175.614L463.888 176.643C464.12 177.087 464.241 177.58 464.241 178.081V205.915H488.914V178.081C488.915 177.58 489.035 177.087 489.267 176.643L489.789 175.614H463.367ZM487.504 178.081V204.506H465.651V178.081C465.651 177.724 465.609 177.369 465.524 177.024H487.631C487.547 177.369 487.504 177.724 487.504 178.081ZM494.384 175.614L494.906 176.643C495.138 177.087 495.258 177.58 495.259 178.081V205.915H519.932V178.081C519.932 177.58 520.053 177.087 520.285 176.643L520.806 175.614H494.384ZM518.522 178.081V204.506H496.669V178.081C496.669 177.724 496.626 177.369 496.542 177.024H518.649C518.564 177.369 518.522 177.724 518.522 178.081ZM525.402 175.614L525.924 176.643C526.155 177.087 526.276 177.58 526.277 178.081V205.915H550.95V178.081C550.95 177.58 551.071 177.087 551.302 176.643L551.824 175.614H525.402ZM549.54 178.081V204.506H527.687V178.081C527.687 177.724 527.644 177.369 527.559 177.024H549.667C549.582 177.369 549.54 177.724 549.54 178.081ZM556.42 175.614L556.942 176.643C557.173 177.087 557.294 177.58 557.294 178.081V205.915H581.968V178.081C581.968 177.58 582.089 177.087 582.32 176.643L582.842 175.614H556.42ZM580.558 178.081V204.506H558.704V178.081C558.705 177.724 558.662 177.369 558.577 177.024H580.685C580.6 177.369 580.557 177.724 580.558 178.081ZM308.278 175.614L308.799 176.643C309.031 177.087 309.152 177.58 309.152 178.081V205.915H333.825V178.081C333.825 177.58 333.946 177.087 334.178 176.643L334.699 175.614H308.278ZM332.415 178.081V204.506H310.562V178.081C310.562 177.724 310.519 177.369 310.435 177.024H332.542C332.457 177.369 332.415 177.724 332.415 178.081ZM339.295 175.614L339.817 176.643C340.048 177.087 340.169 177.58 340.17 178.081V205.915H364.843V178.081C364.843 177.58 364.964 177.087 365.195 176.643L365.717 175.614H339.295ZM363.433 178.081V204.506H341.58V178.081C341.58 177.724 341.537 177.369 341.453 177.024H363.56C363.475 177.369 363.433 177.724 363.433 178.081ZM370.313 175.614L370.835 176.643C371.066 177.087 371.187 177.58 371.187 178.081V205.915H395.861V178.081C395.861 177.58 395.982 177.087 396.213 176.643L396.735 175.614H370.313ZM394.451 178.081V204.506H372.597V178.081C372.598 177.724 372.555 177.369 372.47 177.024H394.578C394.493 177.369 394.45 177.724 394.451 178.081ZM401.331 175.614L401.853 176.643C402.084 177.087 402.205 177.58 402.205 178.081V205.915H426.879V178.081C426.879 177.58 427 177.087 427.231 176.643L427.753 175.614H401.331ZM425.469 178.081V204.506H403.615V178.081C403.616 177.724 403.573 177.369 403.488 177.024H425.596C425.511 177.369 425.468 177.724 425.469 178.081ZM432.349 175.614L432.871 176.643C433.102 177.087 433.223 177.58 433.223 178.081V205.915H457.896V178.081C457.897 177.58 458.018 177.087 458.249 176.643L458.771 175.614H432.349ZM456.487 178.081V204.506H434.633V178.081C434.633 177.724 434.591 177.369 434.506 177.024H456.614C456.529 177.369 456.486 177.724 456.487 178.081ZM463.367 175.614L463.888 176.643C464.12 177.087 464.241 177.58 464.241 178.081V205.915H488.914V178.081C488.915 177.58 489.035 177.087 489.267 176.643L489.789 175.614H463.367ZM487.504 178.081V204.506H465.651V178.081C465.651 177.724 465.609 177.369 465.524 177.024H487.631C487.547 177.369 487.504 177.724 487.504 178.081ZM494.384 175.614L494.906 176.643C495.138 177.087 495.258 177.58 495.259 178.081V205.915H519.932V178.081C519.932 177.58 520.053 177.087 520.285 176.643L520.806 175.614H494.384ZM518.522 178.081V204.506H496.669V178.081C496.669 177.724 496.626 177.369 496.542 177.024H518.649C518.564 177.369 518.522 177.724 518.522 178.081ZM525.402 175.614L525.924 176.643C526.155 177.087 526.276 177.58 526.277 178.081V205.915H550.95V178.081C550.95 177.58 551.071 177.087 551.302 176.643L551.824 175.614H525.402ZM549.54 178.081V204.506H527.687V178.081C527.687 177.724 527.644 177.369 527.559 177.024H549.667C549.582 177.369 549.54 177.724 549.54 178.081ZM556.42 175.614L556.942 176.643C557.173 177.087 557.294 177.58 557.294 178.081V205.915H581.968V178.081C581.968 177.58 582.089 177.087 582.32 176.643L582.842 175.614H556.42ZM580.558 178.081V204.506H558.704V178.081C558.705 177.724 558.662 177.369 558.577 177.024H580.685C580.6 177.369 580.557 177.724 580.558 178.081ZM308.278 175.614L308.799 176.643C309.031 177.087 309.152 177.58 309.152 178.081V205.915H333.825V178.081C333.825 177.58 333.946 177.087 334.178 176.643L334.699 175.614H308.278ZM332.415 178.081V204.506H310.562V178.081C310.562 177.724 310.519 177.369 310.435 177.024H332.542C332.457 177.369 332.415 177.724 332.415 178.081ZM339.295 175.614L339.817 176.643C340.048 177.087 340.169 177.58 340.17 178.081V205.915H364.843V178.081C364.843 177.58 364.964 177.087 365.195 176.643L365.717 175.614H339.295ZM363.433 178.081V204.506H341.58V178.081C341.58 177.724 341.537 177.369 341.453 177.024H363.56C363.475 177.369 363.433 177.724 363.433 178.081ZM370.313 175.614L370.835 176.643C371.066 177.087 371.187 177.58 371.187 178.081V205.915H395.861V178.081C395.861 177.58 395.982 177.087 396.213 176.643L396.735 175.614H370.313ZM394.451 178.081V204.506H372.597V178.081C372.598 177.724 372.555 177.369 372.47 177.024H394.578C394.493 177.369 394.45 177.724 394.451 178.081ZM401.331 175.614L401.853 176.643C402.084 177.087 402.205 177.58 402.205 178.081V205.915H426.879V178.081C426.879 177.58 427 177.087 427.231 176.643L427.753 175.614H401.331ZM425.469 178.081V204.506H403.615V178.081C403.616 177.724 403.573 177.369 403.488 177.024H425.596C425.511 177.369 425.468 177.724 425.469 178.081ZM432.349 175.614L432.871 176.643C433.102 177.087 433.223 177.58 433.223 178.081V205.915H457.896V178.081C457.897 177.58 458.018 177.087 458.249 176.643L458.771 175.614H432.349ZM456.487 178.081V204.506H434.633V178.081C434.633 177.724 434.591 177.369 434.506 177.024H456.614C456.529 177.369 456.486 177.724 456.487 178.081ZM463.367 175.614L463.888 176.643C464.12 177.087 464.241 177.58 464.241 178.081V205.915H488.914V178.081C488.915 177.58 489.035 177.087 489.267 176.643L489.789 175.614H463.367ZM487.504 178.081V204.506H465.651V178.081C465.651 177.724 465.609 177.369 465.524 177.024H487.631C487.547 177.369 487.504 177.724 487.504 178.081ZM494.384 175.614L494.906 176.643C495.138 177.087 495.258 177.58 495.259 178.081V205.915H519.932V178.081C519.932 177.58 520.053 177.087 520.285 176.643L520.806 175.614H494.384ZM518.522 178.081V204.506H496.669V178.081C496.669 177.724 496.626 177.369 496.542 177.024H518.649C518.564 177.369 518.522 177.724 518.522 178.081ZM525.402 175.614L525.924 176.643C526.155 177.087 526.276 177.58 526.277 178.081V205.915H550.95V178.081C550.95 177.58 551.071 177.087 551.302 176.643L551.824 175.614H525.402ZM549.54 178.081V204.506H527.687V178.081C527.687 177.724 527.644 177.369 527.559 177.024H549.667C549.582 177.369 549.54 177.724 549.54 178.081ZM556.42 175.614L556.942 176.643C557.173 177.087 557.294 177.58 557.294 178.081V205.915H581.968V178.081C581.968 177.58 582.089 177.087 582.32 176.643L582.842 175.614H556.42ZM580.558 178.081V204.506H558.704V178.081C558.705 177.724 558.662 177.369 558.577 177.024H580.685C580.6 177.369 580.557 177.724 580.558 178.081ZM308.278 175.614L308.799 176.643C309.031 177.087 309.152 177.58 309.152 178.081V205.915H333.825V178.081C333.825 177.58 333.946 177.087 334.178 176.643L334.699 175.614H308.278ZM332.415 178.081V204.506H310.562V178.081C310.562 177.724 310.519 177.369 310.435 177.024H332.542C332.457 177.369 332.415 177.724 332.415 178.081ZM339.295 175.614L339.817 176.643C340.048 177.087 340.169 177.58 340.17 178.081V205.915H364.843V178.081C364.843 177.58 364.964 177.087 365.195 176.643L365.717 175.614H339.295ZM363.433 178.081V204.506H341.58V178.081C341.58 177.724 341.537 177.369 341.453 177.024H363.56C363.475 177.369 363.433 177.724 363.433 178.081ZM370.313 175.614L370.835 176.643C371.066 177.087 371.187 177.58 371.187 178.081V205.915H395.861V178.081C395.861 177.58 395.982 177.087 396.213 176.643L396.735 175.614H370.313ZM394.451 178.081V204.506H372.597V178.081C372.598 177.724 372.555 177.369 372.47 177.024H394.578C394.493 177.369 394.45 177.724 394.451 178.081ZM401.331 175.614L401.853 176.643C402.084 177.087 402.205 177.58 402.205 178.081V205.915H426.879V178.081C426.879 177.58 427 177.087 427.231 176.643L427.753 175.614H401.331ZM425.469 178.081V204.506H403.615V178.081C403.616 177.724 403.573 177.369 403.488 177.024H425.596C425.511 177.369 425.468 177.724 425.469 178.081ZM432.349 175.614L432.871 176.643C433.102 177.087 433.223 177.58 433.223 178.081V205.915H457.896V178.081C457.897 177.58 458.018 177.087 458.249 176.643L458.771 175.614H432.349ZM456.487 178.081V204.506H434.633V178.081C434.633 177.724 434.591 177.369 434.506 177.024H456.614C456.529 177.369 456.486 177.724 456.487 178.081ZM463.367 175.614L463.888 176.643C464.12 177.087 464.241 177.58 464.241 178.081V205.915H488.914V178.081C488.915 177.58 489.035 177.087 489.267 176.643L489.789 175.614H463.367ZM487.504 178.081V204.506H465.651V178.081C465.651 177.724 465.609 177.369 465.524 177.024H487.631C487.547 177.369 487.504 177.724 487.504 178.081ZM494.384 175.614L494.906 176.643C495.138 177.087 495.258 177.58 495.259 178.081V205.915H519.932V178.081C519.932 177.58 520.053 177.087 520.285 176.643L520.806 175.614H494.384ZM518.522 178.081V204.506H496.669V178.081C496.669 177.724 496.626 177.369 496.542 177.024H518.649C518.564 177.369 518.522 177.724 518.522 178.081ZM525.402 175.614L525.924 176.643C526.155 177.087 526.276 177.58 526.277 178.081V205.915H550.95V178.081C550.95 177.58 551.071 177.087 551.302 176.643L551.824 175.614H525.402ZM549.54 178.081V204.506H527.687V178.081C527.687 177.724 527.644 177.369 527.559 177.024H549.667C549.582 177.369 549.54 177.724 549.54 178.081ZM556.42 175.614L556.942 176.643C557.173 177.087 557.294 177.58 557.294 178.081V205.915H581.968V178.081C581.968 177.58 582.089 177.087 582.32 176.643L582.842 175.614H556.42ZM580.558 178.081V204.506H558.704V178.081C558.705 177.724 558.662 177.369 558.577 177.024H580.685C580.6 177.369 580.557 177.724 580.558 178.081Z" fill="#3F3D56"/>
<path d="M392.091 298.933H340.106C339.011 298.932 337.961 298.496 337.187 297.723C336.413 296.949 335.977 295.899 335.976 294.805V267.122C335.977 266.028 336.413 264.979 337.187 264.205C337.961 263.431 339.011 262.996 340.106 262.994H392.091C393.186 262.996 394.235 263.431 395.01 264.205C395.784 264.979 396.219 266.028 396.221 267.122V294.805C396.219 295.899 395.784 296.949 395.01 297.723C394.235 298.496 393.186 298.932 392.091 298.933Z" fill="#23BFEA"/>
<path d="M471.2 298.933H419.215C418.12 298.932 417.07 298.496 416.296 297.723C415.522 296.949 415.086 295.899 415.085 294.805V267.122C415.086 266.028 415.522 264.979 416.296 264.205C417.07 263.431 418.12 262.996 419.215 262.994H471.2C472.295 262.996 473.345 263.431 474.119 264.205C474.893 264.979 475.328 266.028 475.33 267.122V294.805C475.328 295.899 474.893 296.949 474.119 297.723C473.345 298.496 472.295 298.932 471.2 298.933Z" fill="#23BFEA"/>
<path d="M550.309 298.933H498.324C497.229 298.932 496.179 298.496 495.405 297.723C494.631 296.949 494.195 295.899 494.194 294.805V267.122C494.195 266.028 494.631 264.979 495.405 264.205C496.179 263.431 497.229 262.996 498.324 262.994H550.309C551.404 262.996 552.454 263.431 553.228 264.205C554.002 264.979 554.438 266.028 554.439 267.122V294.805C554.438 295.899 554.002 296.949 553.228 297.723C552.454 298.496 551.404 298.932 550.309 298.933Z" fill="#23BFEA"/>
<path d="M392.091 391.246H340.106C339.011 391.245 337.961 390.809 337.187 390.036C336.413 389.262 335.977 388.212 335.976 387.118V359.435C335.977 358.341 336.413 357.292 337.187 356.518C337.961 355.744 339.011 355.309 340.106 355.307H392.091C393.186 355.309 394.235 355.744 395.01 356.518C395.784 357.292 396.219 358.341 396.221 359.435V387.118C396.219 388.212 395.784 389.262 395.01 390.036C394.235 390.809 393.186 391.245 392.091 391.246Z" fill="#23BFEA"/>
<path d="M471.2 391.246H419.215C418.12 391.245 417.07 390.809 416.296 390.036C415.522 389.262 415.086 388.212 415.085 387.118V359.435C415.086 358.341 415.522 357.292 416.296 356.518C417.07 355.744 418.12 355.309 419.215 355.307H471.2C472.295 355.309 473.345 355.744 474.119 356.518C474.893 357.292 475.328 358.341 475.33 359.435V387.118C475.328 388.212 474.893 389.262 474.119 390.036C473.345 390.809 472.295 391.245 471.2 391.246Z" fill="#23BFEA"/>
<path d="M550.309 391.246H498.324C497.229 391.245 496.179 390.809 495.405 390.036C494.631 389.262 494.195 388.212 494.194 387.118V359.435C494.195 358.341 494.631 357.292 495.405 356.518C496.179 355.744 497.229 355.309 498.324 355.307H550.309C551.404 355.309 552.454 355.744 553.228 356.518C554.002 357.292 554.438 358.341 554.439 359.435V387.118C554.438 388.212 554.002 389.262 553.228 390.036C552.454 390.809 551.404 391.245 550.309 391.246Z" fill="#23BFEA"/>
<path d="M392.091 483.559H340.106C339.011 483.558 337.961 483.122 337.187 482.348C336.413 481.575 335.977 480.525 335.976 479.431V451.748C335.977 450.654 336.413 449.605 337.187 448.831C337.961 448.057 339.011 447.622 340.106 447.62H392.091C393.186 447.622 394.235 448.057 395.01 448.831C395.784 449.605 396.219 450.654 396.221 451.748V479.431C396.219 480.525 395.784 481.575 395.01 482.348C394.235 483.122 393.186 483.558 392.091 483.559Z" fill="#23BFEA"/>
<path d="M471.2 483.559H419.215C418.12 483.558 417.07 483.122 416.296 482.348C415.522 481.575 415.086 480.525 415.085 479.431V451.748C415.086 450.654 415.522 449.605 416.296 448.831C417.07 448.057 418.12 447.622 419.215 447.62H471.2C472.295 447.622 473.345 448.057 474.119 448.831C474.893 449.605 475.328 450.654 475.33 451.748V479.431C475.328 480.525 474.893 481.575 474.119 482.348C473.345 483.122 472.295 483.558 471.2 483.559Z" fill="#23BFEA"/>
<path d="M550.309 483.559H498.324C497.229 483.558 496.179 483.122 495.405 482.348C494.631 481.575 494.195 480.525 494.194 479.431V451.748C494.195 450.654 494.631 449.605 495.405 448.831C496.179 448.057 497.229 447.622 498.324 447.62H550.309C551.404 447.622 552.454 448.057 553.228 448.831C554.002 449.605 554.438 450.654 554.439 451.748V479.431C554.438 480.525 554.002 481.575 553.228 482.348C552.454 483.122 551.404 483.558 550.309 483.559Z" fill="#23BFEA"/>
<path d="M383.675 302.485H323.453C321.998 302.483 320.602 301.905 319.573 300.876C318.544 299.847 317.965 298.453 317.964 296.998V264.93C317.965 263.475 318.544 262.08 319.573 261.051C320.602 260.023 321.998 259.444 323.453 259.442H383.675C385.13 259.444 386.525 260.023 387.554 261.051C388.583 262.08 389.162 263.475 389.164 264.93V296.998C389.162 298.453 388.583 299.847 387.554 300.876C386.525 301.905 385.13 302.483 383.675 302.485ZM323.453 260.852C322.371 260.853 321.334 261.283 320.57 262.048C319.805 262.812 319.375 263.848 319.374 264.93V296.998C319.375 298.079 319.805 299.115 320.57 299.88C321.334 300.644 322.371 301.074 323.453 301.076H383.675C384.756 301.074 385.793 300.644 386.558 299.88C387.323 299.115 387.753 298.079 387.754 296.998V264.93C387.753 263.848 387.323 262.812 386.558 262.047C385.793 261.283 384.756 260.853 383.675 260.852H323.453Z" fill="#3F3D56"/>
<path d="M475.318 302.485H415.096C413.641 302.483 412.246 301.905 411.217 300.876C410.188 299.847 409.609 298.453 409.607 296.998V264.93C409.609 263.475 410.188 262.08 411.217 261.051C412.246 260.023 413.641 259.444 415.096 259.442H475.318C476.774 259.444 478.169 260.023 479.198 261.051C480.227 262.08 480.806 263.475 480.807 264.93V296.998C480.806 298.453 480.227 299.847 479.198 300.876C478.169 301.905 476.774 302.483 475.318 302.485ZM415.096 260.852C414.015 260.853 412.978 261.283 412.213 262.047C411.449 262.812 411.018 263.848 411.017 264.93V296.998C411.018 298.079 411.449 299.115 412.213 299.88C412.978 300.644 414.015 301.074 415.096 301.076H475.318C476.4 301.074 477.437 300.644 478.202 299.88C478.966 299.115 479.396 298.079 479.398 296.998V264.93C479.396 263.848 478.966 262.812 478.202 262.047C477.437 261.283 476.4 260.853 475.318 260.852H415.096Z" fill="#3F3D56"/>
<path d="M566.962 302.485H506.74C505.285 302.483 503.89 301.905 502.86 300.876C501.831 299.847 501.253 298.453 501.251 296.998V264.93C501.253 263.475 501.831 262.08 502.86 261.051C503.89 260.023 505.285 259.444 506.74 259.442H566.962C568.417 259.444 569.812 260.023 570.842 261.051C571.871 262.08 572.449 263.475 572.451 264.93V296.998C572.449 298.453 571.871 299.847 570.842 300.876C569.812 301.905 568.417 302.483 566.962 302.485ZM506.74 260.852C505.658 260.853 504.622 261.283 503.857 262.047C503.092 262.812 502.662 263.848 502.661 264.93V296.998C502.662 298.079 503.092 299.115 503.857 299.88C504.622 300.644 505.658 301.074 506.74 301.076H566.962C568.043 301.074 569.08 300.644 569.845 299.88C570.61 299.115 571.04 298.079 571.041 296.998V264.93C571.04 263.848 570.61 262.812 569.845 262.047C569.08 261.283 568.043 260.853 566.962 260.852H506.74Z" fill="#3F3D56"/>
<path d="M383.675 394.798H323.453C321.998 394.796 320.602 394.218 319.573 393.189C318.544 392.16 317.965 390.766 317.964 389.311V357.242C317.965 355.788 318.544 354.393 319.573 353.364C320.602 352.336 321.998 351.757 323.453 351.755H383.675C385.13 351.757 386.525 352.336 387.554 353.364C388.583 354.393 389.162 355.788 389.164 357.242V389.311C389.162 390.766 388.583 392.16 387.554 393.189C386.525 394.218 385.13 394.796 383.675 394.798ZM323.453 353.165C322.371 353.166 321.334 353.596 320.57 354.36C319.805 355.125 319.375 356.161 319.374 357.242V389.311C319.375 390.392 319.805 391.428 320.57 392.193C321.334 392.957 322.371 393.387 323.453 393.389H383.675C384.756 393.387 385.793 392.957 386.558 392.193C387.323 391.428 387.753 390.392 387.754 389.311V357.242C387.753 356.161 387.323 355.125 386.558 354.36C385.793 353.596 384.756 353.166 383.675 353.165H323.453Z" fill="#3F3D56"/>
<path d="M475.318 394.798H415.096C413.641 394.796 412.246 394.218 411.217 393.189C410.188 392.16 409.609 390.766 409.607 389.311V357.242C409.609 355.788 410.188 354.393 411.217 353.364C412.246 352.336 413.641 351.757 415.096 351.755H475.318C476.774 351.757 478.169 352.336 479.198 353.364C480.227 354.393 480.806 355.788 480.807 357.242V389.311C480.806 390.766 480.227 392.16 479.198 393.189C478.169 394.218 476.774 394.796 475.318 394.798ZM415.096 353.165C414.015 353.166 412.978 353.596 412.213 354.36C411.449 355.125 411.018 356.161 411.017 357.242V389.311C411.018 390.392 411.449 391.428 412.213 392.193C412.978 392.957 414.015 393.387 415.096 393.389H475.318C476.4 393.387 477.437 392.957 478.202 392.193C478.966 391.428 479.396 390.392 479.398 389.311V357.242C479.396 356.161 478.966 355.125 478.202 354.36C477.437 353.596 476.4 353.166 475.318 353.165H415.096Z" fill="#3F3D56"/>
<path d="M566.962 394.798H506.74C505.285 394.796 503.89 394.218 502.86 393.189C501.831 392.16 501.253 390.766 501.251 389.311V357.242C501.253 355.788 501.831 354.393 502.86 353.364C503.89 352.336 505.285 351.757 506.74 351.755H566.962C568.417 351.757 569.812 352.336 570.842 353.364C571.871 354.393 572.449 355.788 572.451 357.242V389.311C572.449 390.766 571.871 392.16 570.842 393.189C569.812 394.218 568.417 394.796 566.962 394.798ZM506.74 353.165C505.658 353.166 504.622 353.596 503.857 354.36C503.092 355.125 502.662 356.161 502.661 357.242V389.311C502.662 390.392 503.092 391.428 503.857 392.193C504.622 392.957 505.658 393.387 506.74 393.389H566.962C568.043 393.387 569.08 392.957 569.845 392.193C570.61 391.428 571.04 390.392 571.041 389.311V357.242C571.04 356.161 570.61 355.125 569.845 354.36C569.08 353.596 568.043 353.166 566.962 353.165H506.74Z" fill="#3F3D56"/>
<path d="M383.675 487.111H323.453C321.998 487.109 320.602 486.531 319.573 485.502C318.544 484.473 317.965 483.079 317.964 481.624V449.555C317.965 448.101 318.544 446.706 319.573 445.677C320.602 444.649 321.998 444.07 323.453 444.068H383.675C385.13 444.07 386.525 444.649 387.554 445.677C388.583 446.706 389.162 448.101 389.164 449.555V481.624C389.162 483.079 388.583 484.473 387.554 485.502C386.525 486.531 385.13 487.109 383.675 487.111ZM323.453 445.478C322.371 445.479 321.334 445.909 320.57 446.673C319.805 447.438 319.375 448.474 319.374 449.555V481.624C319.375 482.705 319.805 483.741 320.57 484.506C321.334 485.27 322.371 485.7 323.453 485.702H383.675C384.756 485.7 385.793 485.27 386.558 484.506C387.323 483.741 387.753 482.705 387.754 481.624V449.555C387.753 448.474 387.323 447.438 386.558 446.673C385.793 445.909 384.756 445.479 383.675 445.478H323.453Z" fill="#3F3D56"/>
<path d="M475.318 487.111H415.096C413.641 487.109 412.246 486.531 411.217 485.502C410.188 484.473 409.609 483.079 409.607 481.624V449.555C409.609 448.101 410.188 446.706 411.217 445.677C412.246 444.649 413.641 444.07 415.096 444.068H475.318C476.774 444.07 478.169 444.649 479.198 445.677C480.227 446.706 480.806 448.101 480.807 449.555V481.624C480.806 483.079 480.227 484.473 479.198 485.502C478.169 486.531 476.774 487.109 475.318 487.111ZM415.096 445.478C414.015 445.479 412.978 445.909 412.213 446.673C411.449 447.438 411.018 448.474 411.017 449.555V481.624C411.018 482.705 411.449 483.741 412.213 484.506C412.978 485.27 414.015 485.7 415.096 485.702H475.318C476.4 485.7 477.437 485.27 478.202 484.506C478.966 483.741 479.396 482.705 479.398 481.624V449.555C479.396 448.474 478.966 447.438 478.202 446.673C477.437 445.909 476.4 445.479 475.318 445.478H415.096Z" fill="#3F3D56"/>
<path d="M566.962 487.111H506.74C505.285 487.109 503.89 486.531 502.86 485.502C501.831 484.473 501.253 483.079 501.251 481.624V449.555C501.253 448.101 501.831 446.706 502.86 445.677C503.89 444.649 505.285 444.07 506.74 444.068H566.962C568.417 444.07 569.812 444.649 570.842 445.677C571.871 446.706 572.449 448.101 572.451 449.555V481.624C572.449 483.079 571.871 484.473 570.842 485.502C569.812 486.531 568.417 487.109 566.962 487.111ZM506.74 445.478C505.658 445.479 504.622 445.909 503.857 446.673C503.092 447.438 502.662 448.474 502.661 449.555V481.624C502.662 482.705 503.092 483.741 503.857 484.506C504.622 485.27 505.658 485.7 506.74 485.702H566.962C568.043 485.7 569.08 485.27 569.845 484.506C570.61 483.741 571.04 482.705 571.041 481.624V449.555C571.04 448.474 570.61 447.438 569.845 446.673C569.08 445.909 568.043 445.479 566.962 445.478H506.74Z" fill="#3F3D56"/>
<path d="M812.194 596H-0.194059C-0.407808 596 -0.612803 595.947 -0.763946 595.854C-0.915089 595.76 -1 595.633 -1 595.5C-1 595.367 -0.915089 595.24 -0.763946 595.146C-0.612803 595.053 -0.407808 595 -0.194059 595H812.194C812.408 595 812.613 595.053 812.764 595.146C812.915 595.24 813 595.367 813 595.5C813 595.633 812.915 595.76 812.764 595.854C812.613 595.947 812.408 596 812.194 596Z" fill="#3F3D56"/>
<path d="M480.807 527.75C480.827 526.141 480.206 524.591 479.083 523.44C477.959 522.289 476.424 521.631 474.815 521.612H445.207V594.546H480.807V527.75Z" fill="#3F3D56"/>
<path d="M445.912 593.841H408.902V527.954C408.904 526.179 409.611 524.477 410.866 523.222C412.122 521.967 413.824 521.261 415.599 521.259H445.912V593.841ZM410.312 592.432H444.502V522.669H415.599C414.198 522.67 412.854 523.228 411.862 524.218C410.871 525.209 410.314 526.553 410.312 527.954V592.432Z" fill="#3F3D56"/>
<path d="M413.484 562.483C414.652 562.483 415.599 561.536 415.599 560.369C415.599 559.201 414.652 558.255 413.484 558.255C412.316 558.255 411.37 559.201 411.37 560.369C411.37 561.536 412.316 562.483 413.484 562.483Z" fill="#3F3D56"/>
<path d="M74.5 599C74.1022 599 73.7207 598.95 73.4394 598.862C73.1581 598.774 73 598.654 73 598.529V502.473C72.9989 502.411 73.0368 502.35 73.1116 502.292C73.1865 502.235 73.2968 502.183 73.4362 502.139C73.5756 502.095 73.7414 502.06 73.9239 502.036C74.1065 502.012 74.3023 502 74.5 502C74.6977 502 74.8935 502.012 75.0761 502.036C75.2586 502.06 75.4244 502.095 75.5638 502.139C75.7032 502.183 75.8135 502.235 75.8883 502.292C75.9632 502.35 76.0011 502.411 76 502.473V598.529C76 598.654 75.8419 598.774 75.5606 598.862C75.2793 598.95 74.8978 599 74.5 599Z" fill="#2F2E41"/>
<path d="M111 508C111 527.882 94.8823 544 75 544C55.1177 544 39 527.882 39 508C39 488.118 55.1177 472 75 472C94.8823 472 111 488.118 111 508Z" fill="#67B2F8" stroke="#2F2E41" stroke-width="2"/>
<path d="M71.6714 502C72.5235 502 73.4556 501.783 74.3723 501.57C75.0522 501.41 75.6521 501.372 76.135 501.34C76.8641 501.292 77.4424 501.254 77.7624 500.811C78.0792 500.374 78.0792 499.631 77.7624 498.164C77.3409 496.215 76.4027 493.106 75.2522 490.548C73.7694 487.248 72.342 485.73 71.0131 486.039C69.232 486.454 68.5214 489.534 68.2568 491.336C67.8876 493.849 67.9184 496.834 68.3368 498.763C68.8905 501.321 70.161 501.997 71.6714 501.997V502ZM71.3453 486.578C72.3236 486.578 73.5233 488.058 74.7507 490.797C75.8828 493.316 76.8087 496.378 77.2209 498.298C77.4886 499.529 77.5163 500.202 77.3163 500.476C77.1471 500.709 76.7072 500.737 76.095 500.775C75.5936 500.807 74.9722 500.849 74.2493 501.018C71.3792 501.684 69.5827 501.927 68.872 498.645C68.1122 495.128 68.6905 487.171 71.13 486.604C71.2007 486.588 71.2715 486.578 71.3423 486.578H71.3453Z" fill="#F8CA2A"/>
<path d="M58 526.81L88.2919 527L93 524.918L90.2576 498L87.4982 498.134L59.1174 499.524L58 526.81Z" fill="#F8CA2A"/>
<path opacity="0.2" d="M87.8656 527L93 524.918L90.0092 498L87 498.134L87.8656 527Z" fill="#272223"/>
</g>
</g>
<defs>
<clipPath id="clip0_1_4">
<rect width="761" height="596" fill="white"/>
</clipPath>
<clipPath id="clip1_1_4">
<rect width="890" height="543" fill="white" transform="translate(-77 53)"/>
</clipPath>
</defs>
</svg>
