<svg width="28" height="80" viewBox="0 0 28 80" fill="none" xmlns="http://www.w3.org/2000/svg">
<g clip-path="url(#clip0_184_237)">
<path d="M13.8645 11.6359L17.5929 12.8582V7.50659H14.2097L13.8645 11.6359Z" fill="#F8A8AB"/>
<path d="M17.131 8.98834C15.0792 8.98834 13.416 7.32946 13.416 5.28314C13.416 3.23681 15.0792 1.57794 17.131 1.57794C19.1827 1.57794 20.846 3.23681 20.846 5.28314C20.846 7.32946 19.1827 8.98834 17.131 8.98834Z" fill="#F8A8AB"/>
<path d="M16.1105 4.9156C16.7325 4.89731 17.141 4.27035 17.3828 3.69827C17.6246 3.12619 17.873 2.4693 18.4499 2.23316C18.9218 2.04025 19.7539 3.34571 20.1257 2.99814C20.5142 2.63561 20.1357 0.774692 19.7238 0.440426C19.312 0.106161 18.7484 0.0413031 18.2182 0.0163579C16.9242 -0.0435106 15.622 0.0612594 14.3531 0.325679C13.5677 0.488654 12.7607 0.73478 12.1938 1.30021C11.4768 2.01863 11.2934 3.10125 11.2417 4.11403C11.1883 5.15008 11.2484 6.23437 11.7536 7.14071C12.2588 8.04706 13.316 8.71559 14.3297 8.48443C14.4315 7.93563 14.3281 7.37187 14.2881 6.8131C14.2497 6.25599 14.2897 5.65398 14.6315 5.20995C14.9734 4.76593 15.702 4.58965 16.0989 4.98378" fill="#2F2E43"/>
<path d="M11.5402 6.19946C11.1684 5.92839 10.7232 5.70056 10.2663 5.7571C9.77272 5.81697 9.3542 6.22274 9.22748 6.70335C9.10075 7.18396 9.24248 7.7128 9.54929 8.10527C9.85443 8.49775 10.3096 8.75718 10.7899 8.88689C11.0683 8.96173 11.3735 8.99332 11.6386 8.88024C12.0287 8.71227 12.2405 8.21503 12.0871 7.81924" fill="#2F2E43"/>
<path d="M15.0952 71.1884H18.5868V76.1292H15.0952V71.1884Z" fill="#F8A8AB"/>
<path d="M21.9882 79.1193C22.355 79.1193 22.6818 79.111 22.9286 79.0877C23.8557 79.0029 24.7411 78.3194 25.1863 77.9203C25.3864 77.7407 25.4498 77.4547 25.3464 77.2085C25.2713 77.0323 25.1229 76.8992 24.9379 76.8477L22.4868 76.1492L18.5183 73.4784L18.4733 73.5582C18.4566 73.5881 18.0664 74.2883 17.9364 74.7606C17.8863 74.9402 17.8997 75.0899 17.9747 75.2063C18.0264 75.2861 18.0998 75.3327 18.1581 75.3593C18.0864 75.4341 17.8613 75.5871 17.1677 75.6969C16.1556 75.8565 15.9421 74.8105 15.9338 74.7672L15.9271 74.7323L15.8971 74.7123C15.4152 74.403 15.1184 74.2617 15.0167 74.2916C14.9534 74.3099 14.8466 74.3432 14.5582 77.1919C14.5298 77.2817 14.3281 77.9369 14.4648 78.5639C14.6132 79.2457 17.6012 79.0112 18.1998 78.958C18.2165 78.9597 20.4542 79.1193 21.9865 79.1193H21.9882Z" fill="#2F2E43"/>
<path d="M5.153 67.3033L8.11563 69.1461L5.49413 73.3384L2.53149 71.4956L5.153 67.3033Z" fill="#F8A8AB"/>
<path d="M9.08921 78.4425C9.49939 78.4425 9.87623 78.3926 10.1447 78.346C10.4081 78.2995 10.6149 78.0899 10.6582 77.8272C10.6883 77.6376 10.6332 77.4463 10.5032 77.305L8.79407 75.4191L6.84319 71.0587L6.76316 71.1019C6.73315 71.1186 6.03116 71.506 5.66933 71.8386C5.53094 71.965 5.46257 72.0997 5.46591 72.2378C5.46758 72.3342 5.50426 72.4107 5.54094 72.4656C5.44089 72.4922 5.16911 72.5022 4.52215 72.2294C3.57839 71.832 3.95189 70.8309 3.96857 70.7893L3.98191 70.756L3.9669 70.7244C3.72179 70.2072 3.54671 69.9312 3.44333 69.9029C3.3783 69.8846 3.27159 69.8563 1.51579 72.123C1.4441 72.1829 0.925533 72.6336 0.708769 73.2372C0.473663 73.8941 3.13319 75.2728 3.66843 75.5422C3.68511 75.5555 6.46803 77.5727 7.61188 78.1465C8.06541 78.3743 8.60232 78.4441 9.09087 78.4441L9.08921 78.4425Z" fill="#2F2E43"/>
<path d="M12.524 29.8708H22.3001L23.1871 38.9409L19.3054 72.454H14.3148L16.3107 53.0981L8.21536 70.5731L3.78003 67.4766L10.1012 51.1624C10.1012 51.1624 7.84353 36.9502 9.61766 33.4097C11.3918 29.8691 12.524 29.8708 12.524 29.8708Z" fill="#2F2E43"/>
<path d="M7.66187 30.4229H23.1872L18.5301 10.4036H11.7654L7.66187 30.4229Z" fill="#23BFEA"/>
<path d="M27.0437 10.0094C27.2922 8.7921 26.837 7.67955 26.0299 7.52489C25.2229 7.37023 24.3675 8.23333 24.1207 9.45066C24.0157 9.93626 24.0324 10.4385 24.1691 10.9174L23.187 16.0911L25.7248 16.4919L26.4234 11.3498C26.7386 10.9573 26.9504 10.4984 27.0437 10.0094Z" fill="#F8A8AB"/>
<path d="M11.9304 10.4036H17.8965L21.9183 18.426L23.4356 12.4142L26.7688 12.7667C26.7688 12.7667 25.9801 24.5126 22.5336 24.1151C19.087 23.7177 11.0484 13.1359 11.9321 10.4019H11.9304V10.4036Z" fill="#23BFEA"/>
<path d="M6.29617 48.455C6.75805 48.455 7.26327 48.3419 7.76016 48.2305C8.12866 48.1473 8.45381 48.1274 8.7156 48.1108C9.11077 48.0858 9.42425 48.0659 9.59766 47.8347C9.76941 47.6069 9.76941 47.2194 9.59766 46.4544C9.36923 45.4383 8.86066 43.8169 8.23705 42.4831C7.43335 40.7619 6.65967 39.9703 5.93935 40.1316C4.97391 40.3478 4.58874 41.9543 4.44534 42.8939C4.24525 44.2043 4.26192 45.7609 4.48869 46.767C4.78883 48.1008 5.47747 48.4533 6.29617 48.4533V48.455ZM6.11942 40.4127C6.64966 40.4127 7.29996 41.1843 7.96526 42.6128C8.57887 43.9266 9.08076 45.5231 9.3042 46.5242C9.44926 47.1662 9.46427 47.5171 9.35588 47.6601C9.26418 47.7815 9.02574 47.7964 8.69392 47.8164C8.42213 47.833 8.08531 47.8546 7.69347 47.9428C6.13777 48.2904 5.164 48.4167 4.77882 46.7055C4.36697 44.8712 4.68045 40.722 6.00271 40.426C6.04106 40.4177 6.07941 40.4127 6.11776 40.4127H6.11942Z" fill="#F9CE3B"/>
<path d="M0 60.7846L14.8267 60.881L17.1311 59.825L15.7888 46.17L14.4382 46.2382L0.546913 46.9433L0 60.7846Z" fill="#F9CE3B"/>
<path opacity="0.2" d="M14.8267 60.881L17.1311 59.825L15.7888 46.17L14.4382 46.2382L14.8267 60.881Z" fill="#272223"/>
<path d="M5.26904 40.9116C5.0206 42.1289 5.47581 43.2415 6.28284 43.3961C7.08987 43.5508 7.94525 42.6877 8.19203 41.4703C8.29708 40.9847 8.2804 40.4825 8.14368 40.0036L9.12578 34.8299L6.58797 34.4291L5.88932 39.5712C5.57418 39.9637 5.36242 40.4226 5.26904 40.9116Z" fill="#F8A8AB"/>
<path d="M15.3318 10.4036C15.3318 10.4036 11.942 10.2606 11.7652 10.4036C10.8398 11.1569 5.41235 38.3489 5.41235 38.3489H8.85056L15.3318 10.4036Z" fill="#23BFEA"/>
</g>
<defs>
<clipPath id="clip0_184_237">
<rect width="28" height="80" fill="white"/>
</clipPath>
</defs>
</svg>
