<svg width="17" height="19" viewBox="0 0 17 19" fill="none" xmlns="http://www.w3.org/2000/svg">
<path d="M8.6113 0.458712C8.40853 0.461881 8.21531 0.545367 8.07404 0.690848C7.93276 0.836328 7.85497 1.03192 7.85775 1.23469V1.61744H3.64746C3.54605 1.61606 3.44539 1.63485 3.35131 1.6727C3.25722 1.71055 3.1716 1.76672 3.09941 1.83794C3.02721 1.90916 2.96989 1.99402 2.93076 2.08758C2.89163 2.18113 2.87148 2.28154 2.87148 2.38295H1.73369C1.63225 2.38151 1.53154 2.40025 1.4374 2.43808C1.34327 2.47591 1.25759 2.53207 1.18535 2.60329C1.11311 2.67452 1.05575 2.75939 1.01659 2.85298C0.977438 2.94657 0.957275 3.04701 0.957275 3.14846C0.957275 3.2499 0.977438 3.35034 1.01659 3.44393C1.05575 3.53752 1.11311 3.62239 1.18535 3.69362C1.25759 3.76485 1.34327 3.821 1.4374 3.85883C1.53154 3.89666 1.63225 3.9154 1.73369 3.91396H15.5128C15.6143 3.9154 15.715 3.89666 15.8091 3.85883C15.9033 3.821 15.9889 3.76485 16.0612 3.69362C16.1334 3.62239 16.1908 3.53752 16.2299 3.44393C16.2691 3.35034 16.2892 3.2499 16.2892 3.14846C16.2892 3.04701 16.2691 2.94657 16.2299 2.85298C16.1908 2.75939 16.1334 2.67452 16.0612 2.60329C15.9889 2.53207 15.9033 2.47591 15.8091 2.43808C15.715 2.40025 15.6143 2.38151 15.5128 2.38295H14.375C14.375 2.28154 14.3549 2.18113 14.3158 2.08758C14.2766 1.99402 14.2193 1.90916 14.1471 1.83794C14.0749 1.76672 13.9893 1.71055 13.8952 1.6727C13.8011 1.63485 13.7005 1.61606 13.5991 1.61744H9.38877V1.23469C9.39017 1.13227 9.37101 1.03061 9.33241 0.935734C9.29382 0.840857 9.23658 0.754689 9.16408 0.682332C9.09159 0.609975 9.00531 0.552901 8.91036 0.51449C8.81541 0.476079 8.71371 0.457112 8.6113 0.458712ZM1.73369 5.44498L3.10622 17.107C3.19655 17.8779 3.84905 18.4586 4.62527 18.4586H12.6212C13.3975 18.4586 14.0492 17.8779 14.1403 17.107L15.5128 5.44498H1.73369Z" fill="white"/>
</svg>
