<svg width="16" height="16" viewBox="0 0 16 16" fill="none" xmlns="http://www.w3.org/2000/svg">
<path d="M12.6969 0.799988C12.3899 0.799988 12.0828 0.91725 11.8485 1.15155L10.4 2.59999L13.4 5.59999L14.8485 4.15155C15.3171 3.68295 15.3171 2.92328 14.8485 2.45468L13.5454 1.15155C13.3111 0.91725 13.004 0.799988 12.6969 0.799988ZM9.20005 3.79999L2.15591 10.8441C2.15591 10.8441 2.70657 10.7948 2.91177 11C3.11697 11.2052 2.94805 12.548 3.20005 12.8C3.45205 13.052 4.78638 12.8746 4.97778 13.066C5.16918 13.2574 5.15591 13.8441 5.15591 13.8441L12.2 6.79999L9.20005 3.79999ZM1.40005 12.8L0.834033 14.4031C0.811782 14.4664 0.800295 14.5329 0.800049 14.6C0.800049 14.7591 0.863263 14.9117 0.975785 15.0243C1.08831 15.1368 1.24092 15.2 1.40005 15.2C1.46711 15.1997 1.53366 15.1883 1.59692 15.166C1.59888 15.1652 1.60083 15.1645 1.60278 15.1637L1.61802 15.159C1.61919 15.1582 1.62036 15.1574 1.62153 15.1566L3.20005 14.6L2.30005 13.7L1.40005 12.8Z" fill="white"/>
</svg>
