<svg width="18" height="18" viewBox="0 0 18 18" fill="none" xmlns="http://www.w3.org/2000/svg">
<path fill-rule="evenodd" clip-rule="evenodd" d="M9.01748 17.9966L9.02065 18L9.02067 18L16.2751 10.0825C17.1941 9.00123 17.9999 7.48259 17.9999 5.76492H18C18 2.58021 15.7132 0 12.8908 0C11.3314 0 9.93758 0.786349 9.00111 2.02729C8.06463 0.786338 6.66863 0 5.11147 0C5.1111 0 5.11073 4.43142e-08 5.11036 1.32939e-07C5.10999 4.43144e-08 5.10962 0 5.10925 0C2.28675 0 0 2.58021 0 5.76492C0 7.43594 0.679495 8.83415 1.63775 9.99399L9.01748 17.9966Z" fill="white"/>
</svg>
