<svg width="562" height="487" viewBox="0 0 562 487" fill="none" xmlns="http://www.w3.org/2000/svg">
<g clip-path="url(#clip0_167_129)">
<path d="M234.882 387.416C234.915 391.526 236.577 395.455 239.504 398.34C242.431 401.225 246.383 402.831 250.492 402.805L516.485 400.898C520.595 400.867 524.523 399.205 527.408 396.277C530.292 393.35 531.896 389.397 531.866 385.288C531.837 381.178 530.177 377.249 527.251 374.363C524.325 371.478 520.373 369.872 516.263 369.899L250.27 371.806C246.161 371.839 242.232 373.501 239.347 376.428C236.462 379.355 234.856 383.307 234.882 387.416Z" fill="#F2F2F2"/>
<path d="M266.789 383.71C266.788 383.449 266.891 383.198 267.074 383.013C267.258 382.828 267.508 382.724 267.769 382.723L336.472 382.477C336.601 382.476 336.729 382.501 336.848 382.55C336.968 382.599 337.077 382.671 337.168 382.762C337.26 382.854 337.333 382.962 337.383 383.081C337.432 383.2 337.458 383.328 337.459 383.457C337.459 383.586 337.434 383.714 337.385 383.834C337.336 383.953 337.264 384.062 337.173 384.154C337.082 384.245 336.974 384.318 336.855 384.368C336.736 384.418 336.608 384.444 336.479 384.444L267.776 384.69C267.515 384.69 267.264 384.587 267.079 384.404C266.894 384.22 266.79 383.97 266.789 383.71Z" fill="#CCCCCC"/>
<path d="M266.868 392.727C266.867 392.466 266.97 392.216 267.154 392.031C267.338 391.846 267.587 391.741 267.848 391.74L444.738 390.69C444.867 390.69 444.995 390.714 445.115 390.763C445.234 390.812 445.343 390.884 445.435 390.974C445.527 391.065 445.6 391.173 445.65 391.292C445.7 391.411 445.726 391.539 445.727 391.668C445.728 391.797 445.703 391.926 445.654 392.045C445.605 392.165 445.534 392.274 445.443 392.366C445.352 392.457 445.244 392.53 445.125 392.581C445.006 392.631 444.878 392.657 444.749 392.658H444.745L267.855 393.707C267.594 393.708 267.344 393.605 267.159 393.421C266.974 393.237 266.869 392.988 266.868 392.727Z" fill="#CCCCCC"/>
<path d="M234.882 328.416C234.915 332.526 236.577 336.455 239.504 339.34C242.431 342.225 246.383 343.831 250.492 343.805L516.485 341.898C520.595 341.867 524.523 340.205 527.408 337.277C530.292 334.35 531.896 330.397 531.866 326.288C531.837 322.178 530.177 318.249 527.251 315.363C524.325 312.478 520.373 310.872 516.263 310.899L250.27 312.806C246.161 312.839 242.232 314.501 239.347 317.428C236.462 320.355 234.856 324.307 234.882 328.416Z" fill="#F2F2F2"/>
<path d="M263.868 333.727C263.867 333.466 263.97 333.216 264.154 333.031C264.338 332.846 264.587 332.741 264.848 332.74L441.738 331.69C441.867 331.69 441.995 331.715 442.114 331.764C442.234 331.813 442.343 331.885 442.434 331.976C442.526 332.067 442.599 332.175 442.649 332.294C442.698 332.413 442.724 332.541 442.725 332.67C442.725 332.8 442.7 332.928 442.651 333.047C442.602 333.167 442.53 333.275 442.439 333.367C442.348 333.459 442.24 333.531 442.121 333.581C442.002 333.631 441.874 333.657 441.745 333.658L264.855 334.707C264.594 334.708 264.344 334.605 264.159 334.421C263.974 334.237 263.869 333.988 263.868 333.727Z" fill="#CCCCCC"/>
<path d="M263.868 323.727C263.867 323.466 263.97 323.216 264.154 323.031C264.338 322.846 264.587 322.741 264.848 322.74L441.738 321.69C441.867 321.69 441.995 321.715 442.114 321.764C442.234 321.813 442.343 321.885 442.434 321.976C442.526 322.067 442.599 322.175 442.649 322.294C442.698 322.413 442.724 322.541 442.725 322.67C442.725 322.8 442.7 322.928 442.651 323.047C442.602 323.167 442.53 323.275 442.439 323.367C442.348 323.459 442.24 323.531 442.121 323.581C442.002 323.631 441.874 323.657 441.745 323.658L264.855 324.707C264.594 324.708 264.344 324.605 264.159 324.421C263.974 324.237 263.869 323.988 263.868 323.727Z" fill="#CCCCCC"/>
<path d="M312.73 455.806L46.7366 453.899C42.6272 453.872 38.6751 455.478 35.7492 458.363C32.8233 461.249 31.1631 465.178 31.1337 469.288C31.1042 473.397 32.7079 477.35 35.5921 480.277C38.4764 483.205 42.405 484.867 46.5144 484.898L312.508 486.805C316.617 486.832 320.569 485.227 323.495 482.341C326.421 479.455 328.081 475.526 328.111 471.416C328.14 467.307 326.536 463.354 323.652 460.427C320.768 457.499 316.839 455.837 312.73 455.806Z" fill="#F2F2F2"/>
<path d="M130.224 468.69L61.5212 468.444C61.392 468.444 61.2642 468.418 61.145 468.368C61.0258 468.318 60.9177 468.245 60.8266 468.154C60.7356 468.062 60.6635 467.953 60.6145 467.834C60.5655 467.714 60.5406 467.586 60.541 467.457C60.5415 467.328 60.5674 467.2 60.6172 467.081C60.6671 466.962 60.7399 466.854 60.8316 466.762C60.9232 466.671 61.0319 466.599 61.1515 466.55C61.271 466.501 61.399 466.476 61.5281 466.477L130.231 466.723C130.361 466.723 130.489 466.748 130.608 466.798C130.728 466.848 130.836 466.92 130.928 467.012C131.019 467.104 131.091 467.213 131.14 467.332C131.19 467.452 131.215 467.58 131.214 467.71C131.214 467.839 131.188 467.967 131.138 468.086C131.088 468.206 131.015 468.314 130.923 468.405C130.831 468.496 130.722 468.568 130.602 468.617C130.482 468.666 130.354 468.691 130.224 468.69Z" fill="#CCCCCC"/>
<path d="M239.145 477.707L62.255 476.658C62.1259 476.657 61.998 476.631 61.8789 476.581C61.7597 476.531 61.6515 476.459 61.5605 476.367C61.4695 476.275 61.3974 476.167 61.3484 476.047C61.2994 475.928 61.2744 475.8 61.2749 475.67C61.2754 475.541 61.3013 475.413 61.3511 475.294C61.401 475.175 61.4738 475.067 61.5655 474.976C61.6571 474.885 61.7658 474.813 61.8854 474.764C62.0049 474.715 62.1329 474.69 62.262 474.69L239.152 475.74C239.281 475.74 239.409 475.766 239.528 475.816C239.647 475.866 239.755 475.939 239.846 476.03C239.937 476.122 240.009 476.231 240.058 476.35C240.107 476.47 240.132 476.598 240.132 476.727C240.131 476.856 240.106 476.984 240.056 477.103C240.006 477.222 239.933 477.33 239.841 477.421C239.75 477.512 239.641 477.584 239.521 477.633C239.402 477.682 239.274 477.707 239.145 477.707Z" fill="#CCCCCC"/>
<path d="M555 334.163C558.866 334.163 562 331.029 562 327.163C562 323.297 558.866 320.163 555 320.163C551.134 320.163 548 323.297 548 327.163C548 331.029 551.134 334.163 555 334.163Z" fill="#F2F2F2"/>
<path d="M555 393.163C558.866 393.163 562 390.029 562 386.163C562 382.297 558.866 379.163 555 379.163C551.134 379.163 548 382.297 548 386.163C548 390.029 551.134 393.163 555 393.163Z" fill="#F2F2F2"/>
<path d="M240.728 430.481L48.2817 459.309C46.7135 459.545 45.1141 459.47 43.5751 459.088C42.036 458.705 40.5873 458.024 39.3118 457.081C38.0364 456.139 36.9591 454.954 36.1416 453.595C35.3241 452.236 34.7824 450.73 34.5475 449.161C34.3126 447.593 34.389 445.994 34.7724 444.455C35.1558 442.916 35.8387 441.468 36.782 440.193C37.7253 438.918 38.9106 437.842 40.2701 437.025C41.6296 436.209 43.1367 435.668 44.7052 435.434L237.151 406.606C238.719 406.37 240.319 406.445 241.858 406.827C243.397 407.21 244.845 407.892 246.121 408.834C247.396 409.776 248.474 410.961 249.291 412.32C250.109 413.679 250.65 415.185 250.885 416.754C251.12 418.322 251.044 419.921 250.66 421.46C250.277 422.999 249.594 424.447 248.651 425.722C247.707 426.997 246.522 428.073 245.163 428.89C243.803 429.706 242.296 430.247 240.728 430.481Z" fill="white"/>
<path d="M106.829 437.366L57.1501 444.99C56.9614 445.019 56.769 444.972 56.6151 444.859C56.4613 444.746 56.3586 444.577 56.3296 444.388C56.3007 444.2 56.3478 444.007 56.4608 443.853C56.5737 443.699 56.7431 443.597 56.9317 443.568L106.61 435.943C106.799 435.914 106.991 435.962 107.145 436.075C107.299 436.187 107.402 436.357 107.431 436.545C107.46 436.734 107.413 436.927 107.3 437.08C107.187 437.234 107.017 437.337 106.829 437.366Z" fill="white"/>
<path d="M186.568 431.513L58.6129 450.843C58.4243 450.872 58.2319 450.824 58.078 450.712C57.9241 450.599 57.8215 450.429 57.7925 450.241C57.7636 450.052 57.8107 449.859 57.9236 449.706C58.0366 449.552 58.206 449.449 58.3946 449.42L186.349 430.091C186.443 430.076 186.538 430.08 186.63 430.103C186.722 430.125 186.809 430.165 186.885 430.221C186.962 430.277 187.026 430.348 187.076 430.428C187.125 430.509 187.157 430.599 187.172 430.693C187.186 430.786 187.182 430.882 187.159 430.974C187.137 431.066 187.096 431.152 187.04 431.228C186.984 431.305 186.913 431.369 186.832 431.418C186.751 431.467 186.661 431.499 186.568 431.513Z" fill="white"/>
<path d="M196.022 415.971C195.276 415.928 194.548 415.723 193.889 415.37C193.229 415.018 192.654 414.527 192.203 413.93C191.753 413.334 191.437 412.647 191.278 411.916C191.119 411.186 191.12 410.429 191.282 409.7L170.365 394.719L173.086 387.915L197.799 405.889C199.008 406.253 200.04 407.047 200.702 408.122C201.364 409.196 201.608 410.476 201.389 411.719C201.17 412.962 200.503 414.081 199.514 414.865C198.525 415.648 197.282 416.042 196.022 415.971Z" fill="#A0616A"/>
<path d="M139.829 332.214L127.26 336.814C126.707 337.016 126.2 337.325 125.767 337.723C125.335 338.121 124.984 338.6 124.737 339.134C124.489 339.667 124.349 340.244 124.324 340.832C124.3 341.42 124.391 342.006 124.593 342.559C124.642 342.694 124.698 342.826 124.76 342.955L141.897 378.705L183.188 408.464L189.517 398.381L158.239 369.899L139.829 332.214Z" fill="#3F3D56"/>
<path d="M134.66 406.146C120.337 404.815 106.305 401.508 91.9597 400.396L97.717 385.743L127.14 390.125L134.66 406.146Z" fill="#A0616A"/>
<path d="M86.0634 409.592L85.939 410.689L84.9148 419.504L83.715 419.577L83.6492 430.617C84.0265 431.709 84.0245 432.897 83.6435 433.988C83.2625 435.079 82.5249 436.01 81.5497 436.63C81.388 436.734 81.2193 436.827 81.0449 436.908C80.3154 431.178 80.5354 425.367 81.696 419.709C82.1619 417.604 82.8485 415.554 83.7444 413.593C84.1957 412.623 84.7088 411.682 85.2806 410.777C85.522 410.374 85.7854 409.979 86.0634 409.592Z" fill="#2F2E41"/>
<path d="M86.2902 407.69L86.0634 409.584V409.592L85.9391 410.689C85.6172 410.733 85.3904 410.762 85.2807 410.777C85.254 410.781 85.2272 410.783 85.2002 410.784L86.2902 407.69Z" fill="white"/>
<path d="M138.377 371.361L135.904 385.743C135.904 385.743 141.91 399.277 137.777 402.649C137.271 403.103 136.882 403.671 136.643 404.306C136.404 404.942 136.321 405.626 136.402 406.3C135.816 406.249 135.238 406.197 134.66 406.146C120.337 404.815 106.305 401.508 91.9597 400.396C90.9428 400.316 89.9333 400.243 88.9165 400.191L93.335 387.623L90.3503 376.452L87.2559 364.865L86.5902 345.786C86.5743 345.425 86.5767 345.064 86.5974 344.703C86.5974 344.513 86.6048 344.33 86.6194 344.14C86.7803 341.73 87.4788 339.388 88.6638 337.284C89.8487 335.18 91.4899 333.368 93.4668 331.981C93.4723 331.981 93.4775 331.978 93.4814 331.974C94.1556 331.501 94.8648 331.081 95.6029 330.716C96.3958 330.323 97.2205 329.997 98.0682 329.743L98.9168 329.487L103.511 322.054L108.837 321.498L110.812 321.293L123.68 319.955L126.452 323.554L126.957 324.212L128.91 326.743L134.997 329.984C136.327 330.69 137.543 331.592 138.604 332.662C141.092 335.15 142.636 338.427 142.971 341.931C143.052 342.738 143.066 343.55 143.015 344.359L138.377 371.361Z" fill="#3F3D56"/>
<path d="M75.7395 306.588C75.6073 312.274 77.7322 317.779 80.7847 322.615C81.8044 319.807 83.2324 317.165 85.0225 314.774C84.1654 320.072 85.0784 325.505 87.6203 330.232C87.7099 330.296 87.8027 330.356 87.8984 330.411C89.1188 331.202 90.5035 331.706 91.9475 331.883C93.3915 332.06 94.8569 331.906 96.2325 331.432C93.5152 328.357 91.8856 324.473 91.5952 320.379C91.3049 316.285 92.3699 312.21 94.626 308.782C95.946 306.874 97.6533 305.186 98.4709 303.015C99.7618 299.55 98.5209 295.736 97.738 292.124C97.006 288.762 96.8779 284.762 99.1332 282.298C98.8923 281.954 98.5642 281.68 98.1825 281.504C97.8008 281.328 97.3793 281.257 96.9611 281.298C96.2812 281.471 95.6514 281.8 95.1221 282.261C94.5928 282.721 94.179 283.299 93.9137 283.948C93.3936 285.249 92.7337 286.489 91.9455 287.648C90.2818 289.66 87.4485 290.136 85.0608 291.197C79.2784 293.772 75.8781 300.262 75.7395 306.588Z" fill="#2F2E41"/>
<path d="M124.413 303.338C124.083 302.181 126.36 309.251 125.261 309.378C120.256 309.953 113.384 312.942 109.898 314.337C109.741 314.318 109.584 314.3 109.431 314.277C109.057 314.236 108.693 314.177 108.332 314.109C100.215 312.573 97.0928 300.103 97.0928 299.989C97.0928 299.428 98.4382 284.031 100.558 283.803C101.114 283.743 101.674 283.712 102.234 283.712H107.494C108.582 283.478 109.685 283.318 110.795 283.234H110.804C121.393 282.427 129.742 288.881 128.961 296.733C128.957 296.743 128.947 296.752 128.943 296.761C128.716 297.098 128.518 297.417 128.342 297.722C128.172 298.01 128.028 298.283 127.904 298.543C126.939 300.548 129.419 303.072 127.774 303.543C125.587 304.169 133.528 324.759 124.869 324.759C129.081 325.957 125.325 306.528 124.413 303.338Z" fill="#2F2E41"/>
<path d="M114.961 315.419C121.838 315.419 127.414 309.844 127.414 302.966C127.414 296.089 121.838 290.514 114.961 290.514C108.084 290.514 102.508 296.089 102.508 302.966C102.508 309.844 108.084 315.419 114.961 315.419Z" fill="#A0616A"/>
<path d="M128.961 297.413C128.753 297.522 128.55 297.622 128.342 297.723C128.125 297.827 127.908 297.932 127.691 298.028C123.522 299.919 120.128 300.129 118.068 297.413C118.013 295.983 117.692 294.577 117.121 293.265C117.222 294.731 116.836 296.189 116.022 297.413H111.876C107.604 300.248 105.411 300.544 108.376 309.851C109.202 312.444 112.489 327.535 111.196 329.772C110.822 329.731 106.843 313.203 106.482 313.134C98.3644 311.598 93.2065 298.224 93.8668 297.467C93.8636 295.316 94.3583 293.193 95.3121 291.264C96.5189 288.821 98.4001 286.775 100.733 285.367C102.124 284.692 103.574 284.148 105.065 283.74C105.102 283.73 105.134 283.721 105.171 283.712C105.628 283.589 106.094 283.475 106.561 283.379C107.524 283.176 108.499 283.028 109.479 282.937C109.548 282.933 109.618 282.928 109.682 282.928C110.074 282.929 110.458 283.035 110.795 283.234C110.8 283.234 110.8 283.238 110.804 283.238C111.045 283.379 111.256 283.566 111.423 283.79C111.718 284.165 111.878 284.629 111.876 285.107H116.493C116.664 285.107 116.835 285.111 117.006 285.121C120.088 285.226 123.02 286.477 125.227 288.63C127.435 290.783 128.76 293.683 128.943 296.761C128.957 296.98 128.961 297.194 128.961 297.413Z" fill="#2F2E41"/>
<path d="M101.734 293.432C106.265 293.432 109.938 289.759 109.938 285.228C109.938 280.697 106.265 277.024 101.734 277.024C97.2033 277.024 93.5303 280.697 93.5303 285.228C93.5303 289.759 97.2033 293.432 101.734 293.432Z" fill="#2F2E41"/>
<path d="M81.5497 436.63C81.388 436.734 81.2193 436.827 81.0449 436.908C80.4381 437.207 79.7783 437.383 79.1033 437.427C78.4282 437.471 77.7511 437.382 77.1106 437.164C76.4701 436.947 75.8787 436.605 75.3702 436.159C74.8618 435.713 74.4462 435.171 74.1472 434.564C73.8482 433.957 73.6716 433.297 73.6276 432.622C73.5836 431.947 73.673 431.27 73.8906 430.63C74.1083 429.989 74.45 429.398 74.8962 428.889C75.3424 428.381 75.8844 427.965 76.4912 427.666C76.579 427.623 76.6679 427.582 76.758 427.544L76.7434 420.016L76.7287 411.157L76.7141 401.815L83.8248 400.059L83.7443 413.593L83.715 419.577L83.6492 430.616C84.0265 431.709 84.0245 432.897 83.6435 433.988C83.2626 435.079 82.5249 436.01 81.5497 436.63Z" fill="#A0616A"/>
<path d="M109.656 340.548L108.917 341.93L90.3503 376.452L89.7943 377.484L87.168 400.111L86.2902 407.69L86.0634 409.584V409.592L85.939 410.689L84.9148 419.504L83.7151 419.577L81.696 419.709L76.7434 420.016L73.0344 420.25L73.0417 414.317L73.1075 369.356L86.5974 344.703L86.9266 344.096L92.1353 334.578C92.7073 333.534 93.6704 332.761 94.8129 332.427C95.9554 332.094 97.1835 332.228 98.2272 332.8C98.3507 332.868 98.4708 332.941 98.5876 333.02L109.656 340.548Z" fill="#3F3D56"/>
<path d="M7 473.163C10.866 473.163 14 470.029 14 466.163C14 462.297 10.866 459.163 7 459.163C3.13401 459.163 0 462.297 0 466.163C0 470.029 3.13401 473.163 7 473.163Z" fill="#F2F2F2"/>
<path d="M486.928 212.451C486.928 212.451 484.39 239.321 482.985 259.212V259.227C482.875 260.829 482.773 262.377 482.678 263.872L481.932 263.938C481.42 263.989 480.915 264.048 480.403 264.099C472.224 264.969 464.126 266.411 455.998 267.662C455.215 267.779 454.433 267.896 453.65 268.013C445.543 269.337 437.342 270.002 429.128 270.003H428.975C429.04 268.978 429.143 267.64 429.26 266.103C429.948 257.405 431.338 242.328 431.338 242.328L432.632 233.6L436.868 205.011L436.897 204.792L436.934 204.543L437.139 204.492L446.034 202.18L450.819 200.944L453.599 197.111L457.3 192.004L472.692 193.899L473.819 198.098L475.904 205.838L475.97 206.087L484.046 210.776L486.928 212.451Z" fill="#E6E6E6"/>
<path d="M464.957 190.351C473.966 190.351 481.269 183.048 481.269 174.039C481.269 165.03 473.966 157.727 464.957 157.727C455.948 157.727 448.645 165.03 448.645 174.039C448.645 183.048 455.948 190.351 464.957 190.351Z" fill="#FFB6B6"/>
<path d="M447.865 164.167C449.297 165.324 448.969 170.953 450.565 170.036C452.161 169.119 452.493 167.475 454.331 167.458C455.829 167.541 457.243 168.181 458.294 169.251C458.489 169.428 458.675 169.614 458.856 169.797C459.021 169.739 459.185 169.686 459.356 169.643C460.645 169.329 462.006 169.52 463.158 170.179C462.094 170.254 461.081 170.663 460.262 171.346C460.613 171.739 460.969 172.134 461.343 172.5C464.467 175.561 470.873 172.301 475.18 171.565C471.592 175.482 472.3 177.669 473.192 182.904L473.196 183.19C473.379 181.982 477.246 182.043 476.608 183.645C475.808 185.227 474.806 186.7 473.628 188.026C478.897 184.376 483.15 179.345 484.09 173.267C484.434 172.021 484.504 170.716 484.295 169.44C484.14 168.81 483.781 168.249 483.274 167.845C482.767 167.44 482.14 167.215 481.492 167.205C482.079 165.341 482.149 163.352 481.696 161.451C481.243 159.55 480.284 157.807 478.919 156.408C477.555 155.008 475.837 154.005 473.948 153.504C472.059 153.003 470.069 153.023 468.191 153.562C466.477 154.171 464.806 154.893 463.187 155.722C461.554 156.554 459.705 156.868 457.888 156.62C456.757 156.386 455.61 155.8 454.501 156.132C453.216 156.517 452.663 157.875 452.148 159.185C453.115 159.538 453.955 160.172 454.56 161.004C453.56 160.635 452.47 160.591 451.444 160.878C451.425 160.881 451.406 160.886 451.388 160.893C450.225 162.978 450.157 163.489 447.865 164.167Z" fill="#2F2E41"/>
<path d="M455.998 267.662C455.215 267.779 454.432 267.896 453.65 268.013C445.543 269.337 437.342 270.002 429.128 270.003C429.186 268.708 429.223 267.406 429.26 266.103C429.311 264.282 429.347 262.453 429.384 260.624C429.552 252.336 429.72 244.049 429.889 235.766C429.896 235.371 429.903 234.968 429.911 234.573C430.079 226.197 430.306 217.543 433.781 209.913C434.574 208.175 435.563 206.533 436.729 205.019C436.787 204.938 436.838 204.865 436.897 204.792C436.977 204.689 437.058 204.587 437.138 204.492C438.071 203.328 439.11 202.253 440.24 201.28C441.987 199.671 444.037 198.427 446.27 197.619C448.503 196.811 450.875 196.457 453.247 196.577L453.598 197.111L454.066 197.835C453.759 200.125 453.445 202.422 453.152 204.719C451.886 214.675 450.979 224.69 451.996 234.654C452.859 243.03 455.076 251.231 455.778 259.614C455.808 259.892 455.83 260.178 455.851 260.456C456.024 262.854 456.073 265.259 455.998 267.662Z" fill="#3F3D56"/>
<path d="M481.93 263.933C482.29 262.373 482.63 260.803 482.99 259.223V259.213C484.38 252.973 485.773 246.733 487.17 240.493C489 232.313 490.83 223.853 489.26 215.623C489.1 214.776 488.897 213.939 488.65 213.113C488.57 212.843 488.48 212.573 488.39 212.303C487.759 210.407 486.903 208.594 485.84 206.903C483.06 202.463 478.9 199.013 473.82 198.103C473.725 198.075 473.628 198.054 473.53 198.043L472.42 199.073C472.19 201.203 471.97 203.353 471.73 205.493C470.59 215.623 469.1 225.743 465.69 235.323C462.77 243.523 458.49 251.193 455.82 259.473C455.81 259.523 455.79 259.573 455.78 259.613C454.899 262.367 454.188 265.172 453.65 268.013C454.43 267.893 455.22 267.783 456 267.663C464.13 266.413 472.22 264.973 480.4 264.103L481.93 263.933Z" fill="#3F3D56"/>
<path d="M497.82 170.607L497.351 166.115L497.242 165.076L497.073 163.408L493.46 128.74C493.758 127.74 493.717 126.669 493.343 125.695C492.968 124.72 492.281 123.898 491.389 123.356C490.359 122.741 489.127 122.561 487.963 122.855C486.8 123.148 485.801 123.891 485.186 124.921C485.164 124.958 485.149 124.994 485.127 125.031C484.513 126.102 484.34 127.371 484.646 128.568C484.952 129.764 485.713 130.794 486.766 131.439C486.984 131.564 487.211 131.672 487.446 131.761L487.417 132.734L487.329 135.785L487.263 138.089L487.124 142.676L487.073 144.454L486.905 150.218L486.744 155.778L486.546 162.516L486.393 167.695L488.258 168.171L497.82 170.607Z" fill="#FFB6B6"/>
<path d="M501.434 177.988C501.356 177.386 501.211 176.795 501.002 176.225C500.058 174.586 499.48 176.876 500 172.487C500.417 168.924 497.915 169.37 498.815 168.61C500.3 167.351 498.251 166.795 497.352 166.115C496.949 165.815 496.781 165.493 497.242 165.076C497.458 164.888 497.699 164.73 497.959 164.608C498.939 164.096 498.376 163.708 497.074 163.408C494.144 162.92 491.184 162.644 488.214 162.582C487.498 162.545 486.912 162.53 486.547 162.516C486.276 162.508 486.122 162.508 486.122 162.508C485.612 162.993 485.292 163.644 485.222 164.345C485.006 165.831 485.121 167.348 485.559 168.785C485.86 169.783 486.259 170.749 486.751 171.667C486.939 172.012 487.025 172.403 487 172.794V172.801C486.948 173.033 486.845 173.249 486.7 173.437C486.555 173.624 486.37 173.776 486.159 173.884C485.171 174.542 485.72 175.925 486.488 177.227C487.141 178.1 487.695 179.042 488.141 180.036C488.141 180.936 482.055 200.059 482.055 200.059L484.293 228.933C485.954 230.214 488.049 230.794 490.131 230.55C491.868 230.258 493.474 229.441 494.732 228.209C496.504 226.477 497.944 224.437 498.983 222.188C504.894 210.315 502.692 184.996 501.434 177.988Z" fill="#3F3D56"/>
<path d="M390.439 130.37C391.549 130.911 392.404 131.864 392.822 133.026C393.24 134.188 393.188 135.467 392.678 136.591C392.57 136.818 392.444 137.036 392.301 137.242L413.35 166.381L405.524 175.208L385.626 138.121C384.817 137.461 384.25 136.551 384.013 135.535C383.775 134.518 383.881 133.451 384.314 132.501C384.821 131.414 385.74 130.573 386.868 130.163C387.996 129.753 389.24 129.808 390.327 130.316C390.365 130.333 390.402 130.351 390.439 130.37Z" fill="#FFB6B6"/>
<path d="M449.442 215.809C449.442 215.809 446.629 225.873 433.497 218.479C420.365 211.084 406.162 183.472 406.02 181.58C405.878 179.688 407.642 181.26 404.752 177.923C402.401 175.208 404.723 174.172 403.552 174.046C400.466 173.715 405.824 169.803 402.014 170.252C398.203 170.701 410.628 161.869 410.628 161.869C410.628 161.869 412.893 161.923 414.621 166.75C415.592 169.461 414.675 171.316 416.988 171.305C419.301 171.295 418.311 176.787 418.8 177.513C419.289 178.239 435.077 190.659 435.077 190.659L449.442 215.809Z" fill="#3F3D56"/>
<path d="M431.971 152.163C473.99 152.163 508.053 118.1 508.053 76.0815C508.053 34.0629 473.99 0 431.971 0C389.953 0 355.89 34.0629 355.89 76.0815C355.89 118.1 389.953 152.163 431.971 152.163Z" fill="#23BFEA"/>
<path d="M393.312 59.1507C394.104 60.6575 394.708 62.2552 395.112 63.9084C396.144 68.2551 395.42 72.2 393.047 74.0502C392.809 74.2423 392.553 74.4103 392.282 74.5516C389.313 76.1041 385.218 74.4656 381.935 70.7994C380.808 69.5244 379.84 68.1165 379.054 66.6071C378.267 65.1171 377.668 63.5355 377.269 61.8983C376.112 57.0976 377.098 52.7678 380.076 51.2107C384.019 49.1485 389.943 52.7084 393.312 59.1507Z" fill="white"/>
<path d="M392.052 66.5807C393.257 68.8743 393.61 71.5211 393.047 74.0502C392.809 74.2423 392.553 74.4103 392.282 74.5516C389.313 76.1041 385.218 74.4656 381.935 70.7994C380.808 69.5243 379.84 68.1165 379.054 66.6071C378.267 65.117 377.668 63.5355 377.269 61.8983C379.851 60.5661 382.856 60.3108 385.627 61.1883C388.397 62.0658 390.707 64.0046 392.052 66.5807Z" fill="#3F3D56"/>
<path d="M422.847 43.7049C426.082 49.8902 425.786 56.4886 422.273 58.8337C422.126 58.9332 421.974 59.024 421.817 59.1059C417.883 61.1635 411.958 57.6035 408.589 51.1613C407.804 49.6742 407.206 48.0956 406.809 46.4615C405.647 41.6519 406.633 37.3221 409.611 35.765C413.554 33.7028 419.478 37.2627 422.847 43.7049Z" fill="white"/>
<path d="M421.295 51.2879C422.512 53.6053 422.86 56.2824 422.273 58.8337C422.126 58.9332 421.974 59.024 421.817 59.1059C417.883 61.1635 411.958 57.6035 408.589 51.1613C407.804 49.6742 407.206 48.0956 406.809 46.4614C409.378 45.2322 412.324 45.0484 415.026 45.9487C417.729 46.849 419.976 48.7632 421.295 51.2879Z" fill="#3F3D56"/>
<path d="M389.581 102.856C398.539 119.985 415.918 128.58 428.398 122.054C440.877 115.527 443.732 96.3507 434.774 79.2217C424.934 93.5689 410.031 101.647 389.581 102.856Z" fill="white"/>
<path opacity="0.2" d="M499.482 40.937C492.242 27.094 480.918 15.8142 467.047 8.6287C453.176 1.44324 437.429 -1.2997 421.945 0.772253C440.228 3.17806 457.014 12.1413 469.184 25.9954C481.353 39.8495 488.078 57.6516 488.107 76.0916C488.135 94.5316 481.467 112.355 469.34 126.247C457.214 140.139 440.456 149.154 422.181 151.617C435.989 153.431 450.03 151.419 462.774 145.801C475.517 140.183 486.473 131.173 494.448 119.756C502.422 108.338 507.109 94.9495 507.997 81.0509C508.884 67.1522 505.939 53.2767 499.482 40.937Z" fill="black"/>
</g>
<defs>
<clipPath id="clip0_167_129">
<rect width="562" height="486.805" fill="white"/>
</clipPath>
</defs>
</svg>
